<svg id="Boton_Google_Play" data-name="Boton Google Play" xmlns="http://www.w3.org/2000/svg" xmlns:xlink="http://www.w3.org/1999/xlink" width="283.018" height="81.352" viewBox="0 0 283.018 81.352">
  <defs>
    <clipPath id="clip-path">
      <rect id="Rectángulo_75" data-name="Rectángulo 75" width="283.018" height="81.352" fill="none"/>
    </clipPath>
    <clipPath id="clip-path-2">
      <path id="Trazado_111" data-name="Trazado 111" d="M52.907,26.673,75.363,48.807l7.2-7.308L55.645,26.364a2.252,2.252,0,0,0-1.161-.325,2.3,2.3,0,0,0-1.577.634" transform="translate(-52.907 -26.039)" fill="none"/>
    </clipPath>
    <linearGradient id="linear-gradient" x1="-0.878" y1="1.904" x2="-0.86" y2="1.904" gradientUnits="objectBoundingBox">
      <stop offset="0" stop-color="#0dd763"/>
      <stop offset="0.205" stop-color="#0dd763"/>
      <stop offset="0.215" stop-color="#0cd863"/>
      <stop offset="0.343" stop-color="#05e46b"/>
      <stop offset="0.521" stop-color="#01eb6f"/>
      <stop offset="1" stop-color="#00ed71"/>
    </linearGradient>
    <clipPath id="clip-path-3">
      <path id="Trazado_112" data-name="Trazado 112" d="M51.866,28.623V70.374a2.238,2.238,0,0,0,.65,1.592l22.506-22.85L52.567,26.981a2.239,2.239,0,0,0-.7,1.642" transform="translate(-51.866 -26.981)" fill="none"/>
    </clipPath>
    <linearGradient id="linear-gradient-2" x1="-0.463" y1="1.341" x2="-0.449" y2="1.341" gradientUnits="objectBoundingBox">
      <stop offset="0" stop-color="#02deff"/>
      <stop offset="1" stop-color="#0fc2fe"/>
    </linearGradient>
    <clipPath id="clip-path-4">
      <path id="Trazado_113" data-name="Trazado 113" d="M86.272,56.317l7.831,7.72,9.578-5.386a2.273,2.273,0,0,0,0-3.9l-10.209-5.74Z" transform="translate(-86.272 -49.009)" fill="none"/>
    </clipPath>
    <linearGradient id="linear-gradient-3" x1="-3.041" y1="3.178" x2="-3.005" y2="3.178" gradientUnits="objectBoundingBox">
      <stop offset="0" stop-color="#fec70d"/>
      <stop offset="1" stop-color="#ffc80d"/>
    </linearGradient>
    <clipPath id="clip-path-5">
      <path id="Trazado_114" data-name="Trazado 114" d="M52.832,82.718a2.267,2.267,0,0,0,2.788.359L83.17,67.588l-7.831-7.72Z" transform="translate(-52.832 -59.868)" fill="none"/>
    </clipPath>
    <linearGradient id="linear-gradient-4" x1="-0.816" y1="1.279" x2="-0.798" y2="1.279" gradientUnits="objectBoundingBox">
      <stop offset="0" stop-color="#dd1d4f"/>
      <stop offset="1" stop-color="#ee4449"/>
    </linearGradient>
  </defs>
  <g id="Grupo_74" data-name="Grupo 74">
    <g id="Grupo_73" data-name="Grupo 73" clip-path="url(#clip-path)">
      <path id="Trazado_110" data-name="Trazado 110" d="M268.057,81.352H14.962A14.962,14.962,0,0,1,0,66.391V14.962A14.962,14.962,0,0,1,14.962,0h253.1a14.962,14.962,0,0,1,14.962,14.962V66.391a14.962,14.962,0,0,1-14.962,14.962" transform="translate(0 0)" fill="#fff"/>
    </g>
  </g>
  <g id="Grupo_76" data-name="Grupo 76" transform="translate(35.608 17.525)">
    <g id="Grupo_75" data-name="Grupo 75" clip-path="url(#clip-path-2)">
      <rect id="Rectángulo_76" data-name="Rectángulo 76" width="36.588" height="37.333" transform="translate(-11.251 13.12) rotate(-49.385)" fill="url(#linear-gradient)"/>
    </g>
  </g>
  <g id="Grupo_78" data-name="Grupo 78" transform="translate(34.908 18.159)">
    <g id="Grupo_77" data-name="Grupo 77" clip-path="url(#clip-path-3)">
      <rect id="Rectángulo_77" data-name="Rectángulo 77" width="48.252" height="48.112" transform="matrix(0.704, -0.71, 0.71, 0.704, -22.491, 22.696)" fill="url(#linear-gradient-2)"/>
    </g>
  </g>
  <g id="Grupo_80" data-name="Grupo 80" transform="translate(58.064 32.985)">
    <g id="Grupo_79" data-name="Grupo 79" clip-path="url(#clip-path-4)">
      <rect id="Rectángulo_78" data-name="Rectángulo 78" width="19.067" height="15.257" transform="matrix(1, -0.012, 0.012, 1, -0.183, 0.002)" fill="url(#linear-gradient-3)"/>
    </g>
  </g>
  <g id="Grupo_82" data-name="Grupo 82" transform="translate(35.558 40.293)">
    <g id="Grupo_81" data-name="Grupo 81" clip-path="url(#clip-path-5)">
      <rect id="Rectángulo_79" data-name="Rectángulo 79" width="38.55" height="37.451" transform="matrix(0.786, -0.618, 0.618, 0.786, -11.558, 9.09)" fill="url(#linear-gradient-4)"/>
    </g>
  </g>
  <g id="Grupo_84" data-name="Grupo 84">
    <g id="Grupo_83" data-name="Grupo 83" clip-path="url(#clip-path)">
      <path id="Trazado_115" data-name="Trazado 115" d="M135.2,67.82a12.224,12.224,0,0,1,12.232-12.057,11.5,11.5,0,0,1,8.261,3.321l-2.323,2.323a8.393,8.393,0,0,0-5.941-2.35,8.764,8.764,0,0,0,0,17.526,8.051,8.051,0,0,0,6.086-2.414,6.887,6.887,0,0,0,1.795-4.145h-7.875V66.737H158.52a11.866,11.866,0,0,1-2.678,9.762,11.025,11.025,0,0,1-8.41,3.382A12.221,12.221,0,0,1,135.2,67.825Zm32.455-3.469a7.761,7.761,0,1,0,7.792,7.759,7.657,7.657,0,0,0-7.792-7.759m0,12.47a4.718,4.718,0,1,1,4.379-4.706,4.492,4.492,0,0,1-4.379,4.706m17-12.47a7.761,7.761,0,1,0,7.792,7.759,7.653,7.653,0,0,0-7.792-7.759m0,12.47a4.718,4.718,0,1,1,4.381-4.706,4.492,4.492,0,0,1-4.381,4.706m20.865-12v1.263h-.116a5.361,5.361,0,0,0-4.085-1.737,7.772,7.772,0,0,0,0,15.531,5.286,5.286,0,0,0,4.085-1.763h.116v1.116c0,2.969-1.587,4.559-4.145,4.559a4.3,4.3,0,0,1-3.912-2.761l-2.972,1.235a7.4,7.4,0,0,0,6.882,4.587c4,0,7.378-2.356,7.378-8.089V64.82Zm-3.91,12a4.721,4.721,0,0,1,0-9.41c2.323,0,4.146,2,4.146,4.734,0,2.7-1.821,4.676-4.146,4.676m9.5-20.233h3.413v22.82H211.11Zm12.767,20.233a3.944,3.944,0,0,1-3.76-2.35l10.38-4.3-.357-.882c-.644-1.732-2.617-4.939-6.646-4.939-4,0-7.323,3.147-7.323,7.764a7.6,7.6,0,0,0,7.706,7.761,7.714,7.714,0,0,0,6.471-3.441L227.7,74.673A4.434,4.434,0,0,1,223.877,76.821Zm-.267-9.47A3.009,3.009,0,0,1,226.491,69l-6.942,2.883A4.261,4.261,0,0,1,223.61,67.351Z" transform="translate(-44.205 -18.233)" fill-rule="evenodd"/>
      <path id="Trazado_116" data-name="Trazado 116" d="M295.08,56.987h-8.16V79.808h3.406V71.164h4.756a7.1,7.1,0,1,0,.005-14.174Zm.089,11h-4.843V60.162h4.843a3.913,3.913,0,1,1,0,7.825m12.683-11h-3.406v22.82h3.406Zm15.3,22.78V71.019c0-4.052-3.028-6.311-6.935-6.311a6.4,6.4,0,0,0-6.073,3.494l3.023,1.261a3.231,3.231,0,0,1,3.113-1.674c1.76,0,3.55,1.057,3.578,2.939v.236a7.517,7.517,0,0,0-3.552-.882c-3.258,0-6.575,1.79-6.575,5.137,0,3.055,2.673,5.02,5.667,5.02a4.8,4.8,0,0,0,4.344-2.228h.116v1.762h3.291Zm-7.341-2.551c-1.116,0-2.673-.557-2.673-1.934,0-1.763,1.94-2.442,3.613-2.442a6.066,6.066,0,0,1,3.113.763,4.137,4.137,0,0,1-4.054,3.613m19.316-12.008-3.9,9.892H331.1l-4.052-9.892h-3.669l6.075,13.829-3.466,7.691h3.552l9.364-21.52Z" transform="translate(-93.813 -18.633)" fill-rule="evenodd"/>
    </g>
  </g>
  <path id="Trazado_130" data-name="Trazado 130" d="M10.8-5.82A5.692,5.692,0,0,1,9.227-1.5,6.307,6.307,0,0,1,4.7,0h-3.2V-11.422H5.039A5.843,5.843,0,0,1,9.281-9.953,5.488,5.488,0,0,1,10.8-5.82Zm-1.969.063q0-4.1-3.836-4.1H3.375V-1.57H4.7Q8.828-1.57,8.828-5.758ZM13.25,0V-11.422h1.867V0ZM24.719-3.1a2.875,2.875,0,0,1-1.1,2.391,4.794,4.794,0,0,1-3.039.867,7.251,7.251,0,0,1-3.172-.6V-2.211a8.621,8.621,0,0,0,1.66.578,7.039,7.039,0,0,0,1.637.211,2.6,2.6,0,0,0,1.637-.422,1.376,1.376,0,0,0,.527-1.133,1.42,1.42,0,0,0-.484-1.086,7.292,7.292,0,0,0-2-1.055,5.291,5.291,0,0,1-2.2-1.445,3.058,3.058,0,0,1-.641-1.953,2.735,2.735,0,0,1,1.016-2.25,4.213,4.213,0,0,1,2.727-.82,8.011,8.011,0,0,1,3.266.719l-.594,1.523a7.135,7.135,0,0,0-2.719-.641,2.086,2.086,0,0,0-1.375.395,1.3,1.3,0,0,0-.469,1.043,1.468,1.468,0,0,0,.188.762,1.915,1.915,0,0,0,.617.6,10.44,10.44,0,0,0,1.547.742,8.464,8.464,0,0,1,1.844.977,2.872,2.872,0,0,1,.859,1.023A3.079,3.079,0,0,1,24.719-3.1Zm9.773-4.867A3.33,3.33,0,0,1,33.32-5.227a5.163,5.163,0,0,1-3.336.953H28.8V0H26.93V-11.422h3.289a4.976,4.976,0,0,1,3.207.875A3.141,3.141,0,0,1,34.492-7.969ZM28.8-5.844h.992a3.555,3.555,0,0,0,2.109-.5,1.82,1.82,0,0,0,.672-1.562,1.773,1.773,0,0,0-.6-1.469,2.971,2.971,0,0,0-1.875-.484H28.8Zm18.117.117A6.248,6.248,0,0,1,45.52-1.391,5.044,5.044,0,0,1,41.57.156,5.079,5.079,0,0,1,37.6-1.379a6.287,6.287,0,0,1-1.387-4.363,6.189,6.189,0,0,1,1.395-4.344,5.138,5.138,0,0,1,3.98-1.516,5.034,5.034,0,0,1,3.938,1.539A6.241,6.241,0,0,1,46.914-5.727Zm-8.719,0a5.122,5.122,0,0,0,.852,3.2,3.007,3.007,0,0,0,2.523,1.09,3,3,0,0,0,2.512-1.078,5.131,5.131,0,0,0,.848-3.211,5.142,5.142,0,0,0-.84-3.187A2.969,2.969,0,0,0,41.586-10a3.031,3.031,0,0,0-2.535,1.086A5.072,5.072,0,0,0,38.2-5.727ZM58.883,0H56.594L50.977-9.1h-.062l.039.508q.109,1.453.109,2.656V0h-1.7V-11.422h2.266l5.6,9.055h.047q-.016-.18-.062-1.309t-.047-1.762v-5.984h1.711ZM61.9,0V-11.422h1.867V0Zm4.883-11.422h3.391a6.435,6.435,0,0,1,3.41.688,2.407,2.407,0,0,1,1.051,2.172A2.632,2.632,0,0,1,74.117-6.9a2.305,2.305,0,0,1-1.484.836v.078a2.947,2.947,0,0,1,1.77.895,2.706,2.706,0,0,1,.566,1.809,2.932,2.932,0,0,1-1.074,2.41A4.621,4.621,0,0,1,70.906,0H66.781ZM68.648-6.7h1.8a3.077,3.077,0,0,0,1.711-.371A1.421,1.421,0,0,0,72.7-8.336,1.264,1.264,0,0,0,72.113-9.5a3.635,3.635,0,0,0-1.848-.359H68.648Zm0,1.516V-1.57h1.984A2.921,2.921,0,0,0,72.4-2.02,1.658,1.658,0,0,0,73-3.437a1.506,1.506,0,0,0-.609-1.32,3.229,3.229,0,0,0-1.852-.43ZM77.344,0V-11.422h1.867V-1.6h4.836V0ZM92.477,0H86.016V-11.422h6.461v1.578H87.883v3.109h4.3v1.563h-4.3v3.586h4.594Zm13.086,0H99.1V-11.422h6.461v1.578h-4.594v3.109h4.3v1.563h-4.3v3.586h4.594Zm11.984,0h-2.289l-5.617-9.1h-.062l.039.508q.109,1.453.109,2.656V0h-1.7V-11.422H110.3l5.6,9.055h.047q-.016-.18-.062-1.309t-.047-1.762v-5.984h1.711Z" transform="translate(91.945 27.266)"/>
</svg>
