<?xml version="1.0" encoding="UTF-8"?>
<svg id="Boton_Promos" data-name="Boton Promos" xmlns="http://www.w3.org/2000/svg" version="1.1" viewBox="0 0 781.2 70" width="714" height="70">
  <defs>
    <style>
      .cls-1 {
        isolation: isolate;
      }

      .cls-2 {
        fill: #fe921b;
      }

      .cls-2, .cls-3 {
        stroke-width: 0px;
      }

      .cls-3 {
        fill: #fff;
      }
    </style>
  </defs>
  <path id="Path_122" data-name="Path 122" class="cls-2" d="M33.6,0h714.1c18.6,0,33.6,15.7,33.6,35s-15,35-33.6,35H33.6C15,70,0,54.3,0,35S15,0,33.6,0"/>
  <g class="cls-1">
    <path class="cls-3" d="M39.8,36.2v.4s-.2.2-.2.2l-2.2,2.4-2.4,2.3-2.4,2.4-2.3,2.4h-.3s-.2-.1-.2-.1l-1.9-1.6-1.8-1.8v-.2c0,0,0-.2,0-.2l1.7-2,1.8-1.8,1.9-1.8v-.3c0,0,0-.2,0-.2l-1.9-1.8-1.8-2-1.9-1.8v-.2c0,0,0-.2,0-.2l1.8-1.9,1.8-1.8h0c0,0,.4,0,.4,0l2.4,2.3,4.6,4.8,2.3,2.4.2.2Z"/>
    <path class="cls-3" d="M56.9,36.2v.4s-.2.2-.2.2l-2.2,2.4-2.4,2.3-2.4,2.4-2.3,2.4h-.3s-.2-.1-.2-.1l-1.9-1.6-1.8-1.8v-.2c0,0,0-.2,0-.2l1.7-2,1.8-1.8,1.9-1.8v-.3c0,0,0-.2,0-.2l-1.9-1.8-1.8-2-1.9-1.8v-.2c0,0,0-.2,0-.2l1.8-1.9,1.8-1.8h0c0,0,.4,0,.4,0l2.4,2.3,4.6,4.8,2.3,2.4.2.2Z"/>
  </g>
  <g class="cls-1">
    <path class="cls-3" d="M89.5,50.5h-17.4l1-3.2v-21.6l-1-3.2h16.8l2.5,7.6-3.5-1.2h-6.9l-.3.4v2.8l.4.4h2.6l3-1v8.4l-3-1h-2.6l-.4.4v3.8l.6.6h6.7l4.2-1.4-2.7,8.2Z"/>
    <path class="cls-3" d="M117.5,25.7v24.8h-5.4l-8.8-14.8-.8-2,.2,2v11.6l1,3.2h-8.8l1-3.2v-21.6l-1.2-3.2h8.6l7,11.8.8,2-.2-2v-8.6l-1-3.2h8.6l-1,3.2Z"/>
    <path class="cls-3" d="M139.6,29.1h-3.1l-.4.4v16.8l1.4,4.2h-10.6l1.4-4.2v-16.8l-.4-.4h-3.1l-4.2,1.4,2.7-8h17.8l2.7,8-4.2-1.4Z"/>
    <path class="cls-3" d="M163.3,50.5h-17.4l1-3.2v-21.6l-1-3.2h16.8l2.5,7.6-3.5-1.2h-6.9l-.3.4v2.8l.4.4h2.6l3-1v8.4l-3-1h-2.6l-.4.4v3.8l.6.6h6.7l4.2-1.4-2.7,8.2ZM154.9,20.1l-1.2-.6,3.2-6.4,2-1,2,2-6,6Z"/>
    <path class="cls-3" d="M183.7,50.5l-3-9-.8-.4h-2.2l-.4.4v5.8l1,3.2h-9.6l1-3.2v-21.6l-1-3.2h17.4l5.2,5.2v7.8l-3.6,3.6,2.8,7.6,2.2,3.8h-9ZM183.5,31.3l-.8-1.6-1.6-.8h-3.4l-.4.4v5l.4.4h3.4l1.6-.8.8-1.6v-1Z"/>
  </g>
  <g class="cls-1">
    <path class="cls-3" d="M209.9,50.5l.4-3.2-.6-2.4-.4-.4h-6.6l-.4.4-.6,2.4.4,3.2h-9.2l1.6-3.2,5.6-22.2-.6-2.6h13.6l-.6,2.6,5.6,22.2,1.6,3.2h-9.8ZM206.2,29.5l-.2-1.4-.2,1.4-2,8.6.4.4h3.6l.4-.4-2-8.6Z"/>
  </g>
  <g class="cls-1">
    <path class="cls-3" d="M236.7,29.1h-3.1l-.4.4v16.8l1.4,4.2h-10.6l1.4-4.2v-16.8l-.4-.4h-3.1l-4.2,1.4,2.7-8h17.8l2.7,8-4.2-1.4Z"/>
    <path class="cls-3" d="M260.3,50.5h-17.4l1-3.2v-21.6l-1-3.2h16.8l2.5,7.6-3.5-1.2h-6.9l-.3.4v2.8l.4.4h2.6l3-1v8.4l-3-1h-2.6l-.4.4v3.8l.6.6h6.7l4.2-1.4-2.7,8.2Z"/>
    <path class="cls-3" d="M293.1,50.5h-17.4l1-3.2v-21.6l-1-3.2h17.4l5.6,5.6v16.8l-5.6,5.6ZM290.7,31.7l-1-2-2-1h-2.6l-.4.4v14.2l.6.6h2.4l2-1,1-2v-9.2Z"/>
    <path class="cls-3" d="M321.1,50.5h-17.4l1-3.2v-21.6l-1-3.2h16.8l2.5,7.6-3.5-1.2h-6.9l-.3.4v2.8l.4.4h2.6l3-1v8.4l-3-1h-2.6l-.4.4v3.8l.6.6h6.7l4.2-1.4-2.7,8.2Z"/>
    <path class="cls-3" d="M359.1,25.7v24.8h-5.4l-8.8-14.8-.8-2,.2,2v11.6l1,3.2h-8.8l1-3.2v-21.6l-1.2-3.2h8.6l7,11.8.8,2-.2-2v-8.6l-1-3.2h8.6l-1,3.2Z"/>
    <path class="cls-3" d="M387.1,25.7v17.6l.4,2-5.2,5.2h-11.8l-5.2-5.2.4-2v-17.6l-1-3.2h9.8l-1,3.2v15.8l.8,1.6,1.6.8h1.6l1.6-.8.8-1.6v-15.8l-1-3.2h9.2l-1,3.2Z"/>
    <path class="cls-3" d="M410.1,50.5h-17.4l1-3.2v-21.6l-1-3.2h16.8l2.5,7.6-3.5-1.2h-6.9l-.3.4v2.8l.4.4h2.6l3-1v8.4l-3-1h-2.6l-.4.4v3.8l.6.6h6.7l4.2-1.4-2.7,8.2Z"/>
    <path class="cls-3" d="M430.6,28.9h-5.7l-1.2.6-.6,1.2v.8l.8.8,6.2,1.4,3.8,3.8v7.8l-5.2,5.2h-11.8l-2.7-8.2,4.2,1.4h5.7l1.2-.6.6-1.2v-1.6l-1-1-6.2-1.4-3.6-3.6v-6.6l5.2-5.2h11.2l2.5,7.6-3.4-1.2Z"/>
    <path class="cls-3" d="M454.5,29.1h-3.1l-.4.4v16.8l1.4,4.2h-10.6l1.4-4.2v-16.8l-.4-.4h-3.1l-4.2,1.4,2.7-8h17.8l2.7,8-4.2-1.4Z"/>
    <path class="cls-3" d="M475.7,50.5l-3-9-.8-.4h-2.2l-.4.4v5.8l1,3.2h-9.6l1-3.2v-21.6l-1-3.2h17.4l5.2,5.2v7.8l-3.6,3.6,2.8,7.6,2.2,3.8h-9ZM475.5,31.3l-.8-1.6-1.6-.8h-3.4l-.4.4v5l.4.4h3.4l1.6-.8.8-1.6v-1Z"/>
    <path class="cls-3" d="M501.9,50.5l.4-3.2-.6-2.4-.4-.4h-6.6l-.4.4-.6,2.4.4,3.2h-9.2l1.6-3.2,5.6-22.2-.6-2.6h13.6l-.6,2.6,5.6,22.2,1.6,3.2h-9.8ZM498.2,29.5l-.2-1.4-.2,1.4-2,8.6.4.4h3.6l.4-.4-2-8.6Z"/>
    <path class="cls-3" d="M528.6,28.9h-5.7l-1.2.6-.6,1.2v.8l.8.8,6.2,1.4,3.8,3.8v7.8l-5.2,5.2h-11.8l-2.7-8.2,4.2,1.4h5.7l1.2-.6.6-1.2v-1.6l-1-1-6.2-1.4-3.6-3.6v-6.6l5.2-5.2h11.2l2.5,7.6-3.4-1.2Z"/>
    <path class="cls-3" d="M563.5,41.1h-8l-.4.4v5.4l1.2,3.6h-9.8l1-3.2v-21.6l-1-3.2h17.4l5.2,5.2v7.8l-5.6,5.6ZM561.3,31.3l-.8-1.6-1.6-.8h-3.4l-.4.4v5l.4.4h3.4l1.6-.8.8-1.6v-1Z"/>
    <path class="cls-3" d="M587.1,50.5l-3-9-.8-.4h-2.2l-.4.4v5.8l1,3.2h-9.6l1-3.2v-21.6l-1-3.2h17.4l5.2,5.2v7.8l-3.6,3.6,2.8,7.6,2.2,3.8h-9ZM586.9,31.3l-.8-1.6-1.6-.8h-3.4l-.4.4v5l.4.4h3.4l1.6-.8.8-1.6v-1Z"/>
    <path class="cls-3" d="M617.1,50.5h-12.4l-5.2-5.2v-17.6l5.2-5.2h12.4l5.2,5.2v17.6l-5.2,5.2ZM614.3,31.1l-.8-1.6-1.6-.8h-2l-1.6.8-.8,1.6v10.4l.8,1.6,1.6.8h2l1.6-.8.8-1.6v-10.4Z"/>
    <path class="cls-3" d="M647.7,50.5l1-3.2v-12.4l.2-1.6-.6,1.6-6.4,15.6h-.2l-6.4-15.6-.6-1.6.2,1.6v12.4l1,3.2h-8.6l1-3.2v-21.6l-1-3.2h10l4.6,11.3.2.9.2-.9,4.6-11.3h10.2l-1,3.2v21.6l1,3.2h-9.4Z"/>
    <path class="cls-3" d="M679.7,50.5h-12.4l-5.2-5.2v-17.6l5.2-5.2h12.4l5.2,5.2v17.6l-5.2,5.2ZM676.9,31.1l-.8-1.6-1.6-.8h-2l-1.6.8-.8,1.6v10.4l.8,1.6,1.6.8h2l1.6-.8.8-1.6v-10.4Z"/>
    <path class="cls-3" d="M705,28.9h-5.7l-1.2.6-.6,1.2v.8l.8.8,6.2,1.4,3.8,3.8v7.8l-5.2,5.2h-11.8l-2.7-8.2,4.2,1.4h5.7l1.2-.6.6-1.2v-1.6l-1-1-6.2-1.4-3.6-3.6v-6.6l5.2-5.2h11.2l2.5,7.6-3.4-1.2Z"/>
  </g>
  <g class="cls-1">
    <path class="cls-3" d="M734.7,42.2v.2c.1,0,0,.2,0,.2l-3.7,3.8-.2.2h-.3s-2.2-2.6-2.2-2.6l-2.4-2.3-2.3-2.4-1.4-1.4-.8-1-.2-.2v-.5c0,0,0-.2,0-.2l.9-1.1,1.4-1.3,2.3-2.4,2.4-2.3,1.5-1.6.8-.8h.2c0-.1.2,0,.2,0l1.8,2,1.9,1.8v.3c.1,0,0,.3,0,.3l-1.8,1.8-1.9,1.7-1.7,1.9-.2.3v.2c0,0,1.9,1.8,1.9,1.8l1.9,1.6,1.8,1.8Z"/>
    <path class="cls-3" d="M751.9,42.2v.2c.1,0,0,.2,0,.2l-3.7,3.8-.2.2h-.3s-2.2-2.6-2.2-2.6l-2.4-2.3-2.3-2.4-1.4-1.4-.8-1-.2-.2v-.5c0,0,0-.2,0-.2l.9-1.1,1.4-1.3,2.3-2.4,2.4-2.3,1.5-1.6.8-.8h.2c0-.1.2,0,.2,0l1.8,2,1.9,1.8v.3c.1,0,0,.3,0,.3l-1.8,1.8-1.9,1.7-1.7,1.9-.2.3v.2c0,0,1.9,1.8,1.9,1.8l1.9,1.6,1.8,1.8Z"/>
  </g>
</svg>