<svg id="Play" xmlns="http://www.w3.org/2000/svg" width="69.577" height="69.577" viewBox="0 0 69.577 69.577">
  <path id="Trazado_73" data-name="Trazado 73" d="M796.372,922.7a34.788,34.788,0,1,1,34.789-34.788A34.827,34.827,0,0,1,796.372,922.7Zm0-65.317A30.528,30.528,0,1,0,826.9,887.908,30.563,30.563,0,0,0,796.372,857.379Z" transform="translate(-761.584 -853.119)" fill="#e31b23"/>
  <path id="Trazado_74" data-name="Trazado 74" d="M810.9,910.232v-14.94a2.6,2.6,0,0,1,3.9-2.326l13.172,7.5,12.99,7.442a2.673,2.673,0,0,1-.016,4.644L827.859,920l-13.051,7.487a2.607,2.607,0,0,1-3.909-2.323Z" transform="translate(-789.481 -875.439)" fill="#e31b23"/>
</svg>
