<svg xmlns="http://www.w3.org/2000/svg" width="36" height="36" viewBox="0 0 36 36">
  <path id="Boton_tel" d="M1264.066,554.021a17.5,17.5,0,1,0,17.491,17.5A17.5,17.5,0,0,0,1264.066,554.021Zm10.178,24.721c-.409,1.191-2.1,2.17-3.434,2.472-.907.2-2.1.338-6.121-1.316-5.142-2.134-8.47-7.363-8.718-7.7a10,10,0,0,1-2.082-5.282,5.544,5.544,0,0,1,1.8-4.251,2.54,2.54,0,0,1,1.78-.64c.214,0,.409.018.587.035.516.018.783.054,1.121.854.409,1.014,1.442,3.539,1.566,3.788a1.027,1.027,0,0,1,.071.943,2.514,2.514,0,0,1-.569.8c-.249.3-.5.534-.747.853a.8.8,0,0,0-.214,1.085,15.655,15.655,0,0,0,2.847,3.521,13.009,13.009,0,0,0,4.092,2.543,1.137,1.137,0,0,0,1.246-.2,22.58,22.58,0,0,0,1.37-1.814.952.952,0,0,1,1.246-.374c.48.16,2.971,1.388,3.487,1.654.517.249.854.374.979.587A4.331,4.331,0,0,1,1274.244,578.742Z" transform="translate(-1246.057 -553.521)" fill="#e31b23" stroke="rgba(0,0,0,0)" stroke-width="1"/>
</svg>
