<svg xmlns="http://www.w3.org/2000/svg" width="166.2" height="21" viewBox="0 0 166.2 21">
  <path id="Trazado_125" data-name="Trazado 125" d="M18.04,22.85l-3.6,1.2H12.1l-1.8-.9-.75-1.5v-6.3l.75-1.5,1.8-.9h2.04l3.6,1.2L15.7,8H7.6L3.4,12.2V24.8L7.6,29H16ZM40.3,25.1V11.9L36.4,8H27.1l-3.9,3.9V25.1L27.1,29h9.3Zm-6-2.85-.6,1.2-1.2.6H31l-1.2-.6-.6-1.2v-7.8l.6-1.2,1.2-.6h1.5l1.2.6.6,1.2ZM64.75,8H58.3l.75,2.4v6.45l.15,1.5-.6-1.5L53.35,8H46.9l.9,2.4V26.6L47.05,29h6.6l-.75-2.4V17.9l-.15-1.5.6,1.5L59.95,29H64V10.4Zm21.96,6L84.7,8H71.35l-2.01,6,3.12-1.05H74.8l.3.3v12.6L74.05,29H82l-1.05-3.15V13.25l.3-.3h2.34Zm22.14,15-1.2-2.4-4.2-16.65L103.9,8H93.7l.45,1.95L89.95,26.6,88.75,29h6.9l-.3-2.4.45-1.8.3-.3h4.95l.3.3.45,1.8-.3,2.4Zm-8.64-9.3-.3.3h-2.7l-.3-.3,1.5-6.45.15-1.05.15,1.05Zm27.48,3.15-3.6,1.2h-2.34l-1.8-.9-.75-1.5v-6.3l.75-1.5,1.8-.9h2.04l3.6,1.2L125.35,8h-8.1l-4.2,4.2V24.8l4.2,4.2h8.4ZM148.06,14l-2.01-6H132.7l-2.01,6,3.12-1.05h2.34l.3.3v12.6L135.4,29h7.95l-1.05-3.15V13.25l.3-.3h2.34ZM169.6,25.1V11.9L165.7,8h-9.3l-3.9,3.9V25.1l3.9,3.9h9.3Zm-6-2.85-.6,1.2-1.2.6h-1.5l-1.2-.6-.6-1.2v-7.8l.6-1.2,1.2-.6h1.5l1.2.6.6,1.2Z" transform="translate(-3.4 -8)" fill="#fff"/>
</svg>
