<svg xmlns="http://www.w3.org/2000/svg" width="136.44" height="21" viewBox="0 0 136.44 21">
  <path id="Trazado_122" data-name="Trazado 122" d="M30,17.75V11.9L26.1,8H13.05l.75,2.4V26.6L13.05,29H20.4l-.9-2.7V22.25l.3-.3h6Zm-5.85-2.4-.6,1.2-1.2.6H19.8l-.3-.3V13.1l.3-.3h2.55l1.2.6.6,1.2ZM53.25,29,51.6,26.15l-2.1-5.7,2.7-2.7V11.9L48.3,8H35.25L36,10.4V26.6L35.25,29h7.2l-.75-2.4V22.25l.3-.3h1.65l.6.3L46.5,29Zm-6.9-13.65-.6,1.2-1.2.6H42l-.3-.3V13.1l.3-.3h2.55l1.2.6.6,1.2ZM75.9,25.1V11.9L72,8H62.7l-3.9,3.9V25.1L62.7,29H72Zm-6-2.85-.6,1.2-1.2.6H66.6l-1.2-.6-.6-1.2v-7.8l.6-1.2,1.2-.6h1.5l1.2.6.6,1.2ZM105,29l-.75-2.4V10.4L105,8H97.35L93.9,16.46l-.15.69-.15-.69L90.15,8h-7.5l.75,2.4V26.6L82.65,29H89.1l-.75-2.4V17.3l-.15-1.2.45,1.2L93.45,29h.15l4.8-11.7.45-1.2-.15,1.2v9.3L97.95,29Zm23.85-3.9V11.9L124.95,8h-9.3l-3.9,3.9V25.1l3.9,3.9h9.3Zm-6-2.85-.6,1.2-1.2.6h-1.5l-1.2-.6-.6-1.2v-7.8l.6-1.2,1.2-.6h1.5l1.2.6.6,1.2Zm26.64-8.55L147.6,8h-8.4l-3.9,3.9v4.95l2.7,2.7,4.65,1.05.75.75v1.2l-.45.9-.9.45h-4.29l-3.15-1.05L136.65,29h8.85l3.9-3.9V19.25l-2.85-2.85-4.65-1.05-.6-.6v-.6l.45-.9.9-.45h4.26Z" transform="translate(-13.05 -8)" fill="#fff"/>
</svg>
