<svg xmlns="http://www.w3.org/2000/svg" width="168.24" height="21" viewBox="0 0 168.24 21">
  <path id="Trazado_124" data-name="Trazado 124" d="M20.6,17.75V11.9L16.7,8H3.65l.75,2.4V26.6L3.65,29H11l-.9-2.7V22.25l.3-.3h6Zm-5.85-2.4-.6,1.2-1.2.6H10.4l-.3-.3V13.1l.3-.3h2.55l1.2.6.6,1.2Zm25.44,7.5L37.1,23.9H32.9l-.45-.45V10.7l.9-2.7h-7.5l.75,2.4V26.6L25.85,29h12.3ZM62,29l-1.2-2.4L56.6,9.95,57.05,8H46.85l.45,1.95L43.1,26.6,41.9,29h6.9l-.3-2.4.45-1.8.3-.3H54.2l.3.3.45,1.8-.3,2.4Zm-8.64-9.3-.3.3h-2.7l-.3-.3,1.5-6.45.15-1.05.15,1.05ZM82.1,8H75.5l-.3,2.1-2.25,4.5-.3.9-.3-.9L70.1,10.1,69.8,8H62.45l1.65,2.4,5.4,10.8v4.65L68.45,29h7.8L75.2,25.85V20.9l5.25-10.5ZM99.59,22.85,96.5,23.9H92.3l-.45-.45V10.7l.9-2.7h-7.5L86,10.4V26.6L85.25,29h12.3ZM111.2,29l-.75-2.4V10.4L111.2,8h-7.35l.75,2.4V26.6l-.75,2.4Zm20.79-15.3L130.1,8h-8.4l-3.9,3.9v4.95l2.7,2.7,4.65,1.05.75.75v1.2l-.45.9-.9.45h-4.29l-3.15-1.05L119.15,29H128l3.9-3.9V19.25l-2.85-2.85-4.65-1.05-.6-.6v-.6l.45-.9.9-.45h4.26Zm21.42.3L151.4,8H138.05l-2.01,6,3.12-1.05h2.34l.3.3v12.6L140.75,29h7.95l-1.05-3.15V13.25l.3-.3h2.34Zm18.48-.3L170,8h-8.4l-3.9,3.9v4.95l2.7,2.7,4.65,1.05.75.75v1.2l-.45.9-.9.45h-4.29l-3.15-1.05L159.05,29h8.85l3.9-3.9V19.25l-2.85-2.85-4.65-1.05-.6-.6v-.6l.45-.9.9-.45h4.26Z" transform="translate(-3.65 -8)" fill="#fff"/>
</svg>
