<svg xmlns="http://www.w3.org/2000/svg" width="111.63" height="21" viewBox="0 0 111.63 21">
  <path id="Trazado_123" data-name="Trazado 123" d="M22.34,13.7,20.45,8h-8.4l-3.9,3.9v4.95l2.7,2.7L15.5,20.6l.75.75v1.2l-.45.9-.9.45H10.61L7.46,22.85,9.5,29h8.85l3.9-3.9V19.25L19.4,16.4l-4.65-1.05-.6-.6v-.6l.45-.9.9-.45h4.26ZM45.8,29l-.75-2.4V10.4L45.8,8H38.6l.75,2.4v4.5l-.3.3h-3.6l-.3-.3V10.4L35.9,8H28.7l.75,2.4V26.6L28.7,29h7.2l-.75-2.4v-6l.3-.3h3.6l.3.3v6L38.6,29Zm23.85-3.9V11.9L65.75,8h-9.3l-3.9,3.9V25.1l3.9,3.9h9.3Zm-6-2.85-.6,1.2-1.2.6h-1.5l-1.2-.6-.6-1.2v-7.8l.6-1.2,1.2-.6h1.5l1.2.6.6,1.2ZM100.85,8h-6.6l.3,2.4L92.75,17l-.15,1.2L92.45,17,89.9,8H85.4l-2.55,9-.15,1.2L82.55,17l-1.8-6.6.3-2.4h-7.2l1.2,2.4L80.45,29h3.6L87.2,18.05,87.35,17l.15,1.05L90.65,29h3.6l5.4-18.6Zm18.24,5.7L117.2,8h-8.4l-3.9,3.9v4.95l2.7,2.7,4.65,1.05.75.75v1.2l-.45.9-.9.45h-4.29l-3.15-1.05L106.25,29h8.85l3.9-3.9V19.25l-2.85-2.85-4.65-1.05-.6-.6v-.6l.45-.9.9-.45h4.26Z" transform="translate(-7.46 -8)" fill="#fff"/>
</svg>
