<svg xmlns="http://www.w3.org/2000/svg" xmlns:xlink="http://www.w3.org/1999/xlink" width="773.975" height="132.5" viewBox="0 0 773.975 132.5">
  <defs>
    <filter id="Trazado_128" x="0" y="0" width="773.975" height="132.5" filterUnits="userSpaceOnUse">
      <feOffset dy="13.333" input="SourceAlpha"/>
      <feGaussianBlur stdDeviation="13.333" result="blur"/>
      <feFlood flood-opacity="0.502"/>
      <feComposite operator="in" in2="blur"/>
      <feComposite in="SourceGraphic"/>
    </filter>
  </defs>
  <g transform="matrix(1, 0, 0, 1, 0, 0)" filter="url(#Trazado_128)">
    <path id="Trazado_128-2" data-name="Trazado 128" d="M-301.875-52.5H-318l1.875,6v16.125l.375,3.75-1.5-3.75L-330.375-52.5H-346.5l2.25,6V-6l-1.875,6h16.5L-331.5-6V-27.75l-.375-3.75,1.5,3.75L-313.875,0h10.125V-46.5Zm56.25,0h-17.25l1.875,6v29.625l-1.5,3-3,1.5h-3l-3-1.5-1.5-3V-46.5l1.875-6H-289.5l1.875,6v33l-.75,3.75,9.75,9.75H-256.5l9.75-9.75-.75-3.75v-33Zm50.1,37.125L-203.4-12.75H-216l-1.125-1.125V-21l.75-.75h4.875l5.625,1.875v-15.75L-211.5-33.75h-4.875l-.75-.75v-5.25l.6-.75h12.9l6.6,2.25L-201.75-52.5h-31.5l1.875,6V-6l-1.875,6h32.625Zm43.5-22.875L-156.75-52.5h-21l-9.75,9.75v12.375l6.75,6.75L-169.125-21l1.875,1.875v3l-1.125,2.25-2.25,1.125H-181.35l-7.875-2.625L-184.125,0H-162l9.75-9.75V-24.375l-7.125-7.125L-171-34.125l-1.5-1.5v-1.5l1.125-2.25,2.25-1.125h10.65Zm49.8.75-5.025-15h-33.375l-5.025,15,7.8-2.625H-132l.75.75v31.5L-133.875,0H-114l-2.625-7.875v-31.5l.75-.75h5.85ZM-49.5,0l-4.125-7.125-5.25-14.25,6.75-6.75V-42.75l-9.75-9.75H-94.5l1.875,6V-6L-94.5,0h18l-1.875-6V-16.875l.75-.75H-73.5l1.5.75L-66.375,0ZM-66.75-34.125l-1.5,3-3,1.5h-6.375l-.75-.75V-39.75l.75-.75h6.375l3,1.5,1.5,3ZM3.375-9.75v-33l-9.75-9.75h-23.25l-9.75,9.75v33L-29.625,0h23.25Zm-15-7.125-1.5,3-3,1.5h-3.75l-3-1.5-1.5-3v-19.5l1.5-3,3-1.5h3.75l3,1.5,1.5,3ZM51.225-38.25,46.5-52.5h-21l-9.75,9.75v12.375l6.75,6.75L34.125-21,36-19.125v3l-1.125,2.25-2.25,1.125H21.9l-7.875-2.625L19.125,0H41.25L51-9.75V-24.375L43.875-31.5,32.25-34.125l-1.5-1.5v-1.5l1.125-2.25,2.25-1.125h10.65Zm69.375,0L115.875-52.5h-21l-9.75,9.75v12.375l6.75,6.75L103.5-21l1.875,1.875v3l-1.125,2.25L102-12.75H91.275L83.4-15.375,88.5,0h22.125l9.75-9.75V-24.375L113.25-31.5l-11.625-2.625-1.5-1.5v-1.5l1.125-2.25L103.5-40.5h10.65ZM175.5,0l-1.875-6V-46.5l1.875-6h-18l1.875,6v11.25l-.75.75h-9l-.75-.75V-46.5l1.875-6h-18l1.875,6V-6L132.75,0h18l-1.875-6V-21l.75-.75h9l.75.75V-6L157.5,0Zm55.875-9.75v-33l-9.75-9.75h-23.25l-9.75,9.75v33L198.375,0h23.25Zm-15-7.125-1.5,3-3,1.5h-3.75l-3-1.5-1.5-3v-19.5l1.5-3,3-1.5h3.75l3,1.5,1.5,3ZM305.625-52.5h-16.5l.75,6-4.5,16.5L285-27l-.375-3L278.25-52.5H267L260.625-30l-.375,3-.375-3-4.5-16.5.75-6h-18l3,6L254.625,0h9L271.5-27.375,271.875-30l.375,2.625L280.125,0h9l13.5-46.5Zm41.85,14.25L342.75-52.5h-21L312-42.75v12.375l6.75,6.75L330.375-21l1.875,1.875v3l-1.125,2.25-2.25,1.125H318.15l-7.875-2.625L315.375,0H337.5l9.75-9.75V-24.375L340.125-31.5,328.5-34.125l-1.5-1.5v-1.5l1.125-2.25,2.25-1.125h10.65Z" transform="translate(386.5 79.17)" fill="#fff453"/>
  </g>
</svg>
