<svg xmlns="http://www.w3.org/2000/svg" xmlns:xlink="http://www.w3.org/1999/xlink" width="963.759" height="80.818" viewBox="0 0 963.759 80.818">
  <defs>
    <linearGradient id="linear-gradient" x1="0.765" y1="2.883" x2="0.235" y2="-1.615" gradientUnits="objectBoundingBox">
      <stop offset="0" stop-color="#e31b23"/>
      <stop offset="1" stop-color="#fe921b"/>
    </linearGradient>
  </defs>
  <g id="Titulo" transform="translate(0 0)">
    <path id="Trazado_44" data-name="Trazado 44" d="M623.115,3392.481a5.437,5.437,0,0,1-.132,1.407,2.991,2.991,0,0,1-.4.656c-.131.094-1.318.375-1.582.563-.527.094-19.775.938-20.434,1.126h-5.142c-.264-.188-5.273-.282-5.8-.376h-1.055a4.121,4.121,0,0,1-.923.094c-1.055,0-6.988.375-7.647.375-.527,0-7.778-.375-10.152-.656-1.582,0-14.766-.75-16.611-.937-.527,0-3.691-.094-4.878-.094-1.055-.188-5.273-.282-6.329-.282,0-.094-.79-.656-.79-.844-.4-.094-3.56-.375-4.219-.469a3.65,3.65,0,0,1-1.055-.281,3.469,3.469,0,0,0,0-1.219,2.807,2.807,0,0,0,.132-.938,19.307,19.307,0,0,0,2.373-3c.923-.656,5.009-3.374,5.67-3.656a14.731,14.731,0,0,1,3.032-.844,31.281,31.281,0,0,0,3.691-1.969,3.778,3.778,0,0,1,1.055-.563,8.733,8.733,0,0,0,2.109-.094,5.421,5.421,0,0,0,1.978-1.5,9.384,9.384,0,0,0,2.373-.656c.263-.187,0-.656-.264-.75,1.318-.28,6.723-2.062,8.041-2.437,2.374-.657,9.888-3.469,10.547-3.845.659-.281,2.109-1.219,2.109-1.594a17.532,17.532,0,0,0,1.846-1.876,3.531,3.531,0,0,1-.4-1.125c0-1.5-3.164-5.25-3.559-5.72a23.789,23.789,0,0,0-3.955-3c-.923-.469-6.329-4.031-7.12-4.312l-8.569-6.563c-.659-.374-5.538-3.281-6.2-3.75a13.39,13.39,0,0,1-1.714-1.876c-.264-.374-3.164-2.624-2.768-3,.527-.469,5.8-.937,6.328-1.125l14.634-1.594c.527,0,3.824-.094,4.22-.094.923,0,5.4.563,6.2.563l23.863-.563a2.261,2.261,0,0,1,.659,1.5c.264.094.791,2.063.923,2.344,0,0,.659,1.032.791,1.219a2.068,2.068,0,0,0,.264,1.313,16.81,16.81,0,0,1,.264,2.344v.938a7.046,7.046,0,0,1-.527,2.156l-1.186,35.44a16.984,16.984,0,0,1,.132,3.656S623.247,3392.013,623.115,3392.481Zm799.36-7.781a9.453,9.453,0,0,0,2.241-.656,4.3,4.3,0,0,0,1.318-.563s.132-7.032.132-7.875a17.31,17.31,0,0,0,.264-3.281c-.132-.656.132-5.813,0-6.469a19.6,19.6,0,0,0,.132-3.187c.132-.845.527-3.845.527-4.219l.923-16.5c.4-.75-.133-9.376.264-10.5v-.938a7.759,7.759,0,0,1,.264-1.312c0-1.126-.66-10.689-.66-10.876l-2.767-1.593a5.974,5.974,0,0,0-1.846-.563c-.265-.094-2.242-.281-2.242-.281s.133,0-9.492.093c-.265,0-.791.094-1.319.094h-2.245c-.4,0-8.833-.187-9.625-.187h-.527c-.4,0-.923.093-1.45.093-1.318.094-2.769.188-2.9.188,0,0-2.109-.094-2.767-.094h-2.768c-.264,0-3.824-.281-4.219-.281H1381.6c-.132,0-1.847-.094-1.847-.094-1.317,0-5.667-.094-6.987-.094-.923-.094-5.669-.094-6.2-.094-.791,0-7.779.094-10.547.188-1.055,0-8.7.281-9.36.188H1343.5c-.921.093-11.074.187-12.655.187h-.791c-1.056.094-6.461.188-7.515.188l-15.294-.187h-9.759c-.4,0-8.834-.187-9.624-.187h-.528c-.394,0-.923.093-1.449.093-1.318.094-2.77.188-2.9.188,0,0-2.109-.094-2.768-.094h-2.768c-.264,0-3.825-.281-4.219-.281h-2.109c-.132,0-1.847-.094-1.847-.094-1.317,0-5.669-.094-6.987-.094-.923-.094-5.67-.094-6.2-.094-.79,0-7.778.094-10.546.188-1.054,0-8.7.281-9.361.188h-3.164c-.923.093-11.074.187-12.656.187h-.792c-1.053.094-6.458.188-7.513.188l-15.294-.187H1187c-.4,0-8.833-.187-9.624-.187h-.527c-.4,0-.923.093-1.45.093-1.318.094-2.769.188-2.9.188,0,0-2.109-.094-2.767-.094h-2.768c-.265,0-3.824-.281-4.219-.281h-2.109c-.132,0-1.847-.094-1.847-.094-1.317,0-5.667-.094-6.987-.094-.923-.094-5.67-.094-6.2-.094-.791,0-7.779.094-10.547.188-1.055,0-8.7.281-9.359.188h-3.165c-.923.093-11.074.187-12.656.187h-.79c-1.056.094-6.46.188-7.515.188l-15.294-.187h-9.758c-.4,0-8.834-.187-9.625-.187h-.528c-.394,0-.923.093-1.449.093-1.319.094-2.77.188-2.9.188,0,0-2.109-.094-2.768-.094h-2.768c-.264,0-3.824-.281-4.219-.281h-2.109c-.132,0-1.847-.094-1.847-.094-1.318,0-5.668-.094-6.987-.094-.923-.094-5.67-.094-6.2-.094-.79,0-7.779.094-10.546.188-1.055,0-8.7.281-9.361.188h-3.165c-.923.093-11.075.187-12.656.187H998.6c-1.054.094-6.46.188-7.514.188l-15.294-.187h-9.759c-.4,0-8.833-.187-9.624-.187h-.528c-.394,0-.923.093-1.449.093-1.319.094-2.769.188-2.9.188,0,0-2.109-.094-2.768-.094H946c-.264,0-3.824-.281-4.218-.281h-2.109c-.132,0-1.847-.094-1.847-.094-1.318,0-5.668-.094-6.987-.094-.923-.094-5.67-.094-6.2-.094-.79,0-7.779.094-10.546.188-1.055,0-8.7.281-9.361.188h-3.164c-.923.093-11.074.187-12.656.187h-.791c-1.056.094-6.461.188-7.515.188l-15.293-.187H855.55c-.4,0-8.833-.187-9.625-.187H845.4c-.4,0-.923.093-1.45.093-1.318.094-2.769.188-2.9.188,0,0-2.109-.094-2.768-.094h-2.767c-.265,0-3.824-.281-4.22-.281h-2.109c-.132,0-1.847-.094-1.847-.094-1.317,0-5.667-.094-6.987-.094-.923-.094-5.67-.094-6.2-.094-.791,0-7.779.094-10.547.188-1.055,0-8.7.281-9.36.188h-3.165c-.923.093-11.075.187-12.656.187h-.79c-1.056.094-6.461.188-7.515.188l-15.294-.187h-9.759c-.4,0-8.833-.187-9.625-.187h-.528c-.4,0-.923.093-1.45.093-1.318.094-2.768.188-2.9.188,0,0-2.109-.094-2.768-.094h-2.768c-.264,0-3.824-.281-4.219-.281H718.7c-.131,0-1.846-.094-1.846-.094-1.318,0-5.668-.094-6.987-.094-.923-.094-5.67-.094-6.2-.094-.791,0-7.779.094-10.546.188-1.056,0-8.7.281-9.361.188H680.6c-.924.093-11.076.187-12.656.187h-.791c-1.056.094-6.461.188-7.515.188l-15.293-.187H633.267l-10.943-.187c-.132,0-1.714-.188-1.977-.188-.527,0-3.164.281-3.427.281-.527.094-2.241.281-2.241.281-1.318.281-1.977,1.969-1.977,2.063l-.527.281a5.084,5.084,0,0,0,.132.563c0,.094-.4,5.719-.4,6.094a42.712,42.712,0,0,0,1.45,5.062,11.087,11.087,0,0,0-.264,2.156c0,1.22.264,11.533.132,12.659,0,.187-.132,2.624-.132,2.906-.264,1.313,0,10.031-.264,11.251v.75c.264.563.527,4.875.791,5.156l-.264.75c.4.656.4,4.594.4,5.344,0,0-.132,1.313-.132,1.5.264,1.875.659,11.251,1.055,11.344a10.326,10.326,0,0,0,1.977.844c-.264.094.659.281.659.281,1.186.187,4.218.656,4.218.656l11.338-.094h8.175c26.764-.281,36.256-.562,38.893-.562h1.844c6.988,0,25.84.469,27.555.469,1.317-.094,12.261-.187,13.578-.187h3.824c1.055,0,8.043-.188,8.7-.188.526.094,3.032.094,4.482.094h.923c.264,0,3.691.375,3.823.375h6.859c26.763-.281,36.256-.562,38.892-.562h1.847c6.987,0,25.839.469,27.554.469,1.317-.094,12.26-.187,13.578-.187h3.823c1.055,0,8.042-.188,8.7-.188.527.094,3.032.094,4.482.094h.924c.263,0,3.691.375,3.823.375h6.859c26.764-.281,36.256-.562,38.892-.562h1.847c6.987,0,25.839.469,27.554.469,1.318-.094,12.261-.187,13.579-.187h3.823c1.055,0,8.041-.188,8.7-.188.526.094,3.032.094,4.481.094h.924c.264,0,3.691.375,3.823.375H972.5c26.763-.281,36.256-.562,38.892-.562h1.847c6.987,0,25.839.469,27.553.469,1.32-.094,12.262-.187,13.581-.187h3.823c1.055,0,8.041-.188,8.7-.188.526.094,3.032.094,4.482.094h.923c.264,0,3.691.375,3.823.375h6.86c26.763-.281,36.255-.562,38.892-.562h1.847c6.987,0,25.839.469,27.554.469,1.317-.094,12.26-.187,13.579-.187h3.822c1.056,0,8.042-.188,8.7-.188.527.094,3.032.094,4.482.094h.924c.263,0,3.691.375,3.823.375h6.859c26.763-.281,36.256-.562,38.891-.562h1.847c6.987,0,25.84.469,27.553.469,1.319-.094,12.262-.187,13.58-.187h3.823c1.055,0,8.042-.188,8.7-.188.526.094,3.032.094,4.482.094h.923c.264,0,3.691.375,3.823.375h6.86c26.763-.281,36.255-.562,38.892-.562h1.847c6.987,0,25.839.469,27.554.469,1.317-.094,12.26-.187,13.579-.187h3.823c1.055,0,8.041-.188,8.7-.188.527.094,3.033.094,4.482.094h.924c.263,0,3.691.375,3.823.375h4.487a8.943,8.943,0,0,0,2.109-.562h5.01C1419.573,3385.263,1421.682,3384.794,1422.474,3384.7Zm76.992-43.971c0-.094-6.988.563-6.988.563-.658-.281-2.241-.844-2.241-.844l-29.136-1.032c-2.241,0-11.734-1.312-13.711-1.312-.923,0-8.173.751-8.7.938a36.791,36.791,0,0,0-3.955-.282l1.319,7.126c0,.374.526,4.593.394,4.969L1435,3366.511c0,1.5-.132,18.189-.4,19.877-.132,2.624-17.4,6.937-17.534,7.688,0,0,4.746,1.594,5.009,1.594.659.094,2.11.188,2.11.188l47.2-.187c.4,0,2.373-.281,3.3-.281,1.451-.188,4.483-.376,4.483-.376.264-.187,9.887-.094,10.414-.374a15.934,15.934,0,0,0,0-2.626c.132-.281-5.009-2.438-5.009-2.438,0-.281-3.3-1.312-3.692-1.687-.132-.376-1.581-1.969-1.844-2.438-.791-.844-2.9-3.281-3.033-3.281-.132-.188-3.691-2.437-5.009-3.562a20.615,20.615,0,0,1-3.164-1.5,21.221,21.221,0,0,0-3.164-2.156c-.264-.656-3.033-4.219-3.824-5.25a10.064,10.064,0,0,0-.659-1.406,6.757,6.757,0,0,1,2.109-1.969c1.45-.75,12.261-4.687,13.315-5.531.264,0,1.187-.75,1.187-.75,1.188-.75,6.2-3.844,6.593-4.406.264-.188,4.218-2.157,4.615-2.438.526-.187,2.11-1.5,2.636-1.781a15.775,15.775,0,0,1,2.242-2.531c0-.094,6.855-5.813,6.855-6.563C1499.73,3341.76,1499.466,3341.385,1499.466,3340.729Z" transform="translate(-535.971 -3315.508)" fill="url(#linear-gradient)"/>
    <path id="Trazado_133" data-name="Trazado 133" d="M-353.97,0l-2.53-4.37-3.22-8.74,4.14-4.14v-8.97l-5.98-5.98h-20.01l1.15,3.68V-3.68L-381.57,0h11.04l-1.15-3.68v-6.67l.46-.46h2.53l.92.46L-364.32,0Zm-10.58-20.93-.92,1.84-1.84.92h-3.91l-.46-.46v-5.75l.46-.46h3.91l1.84.92.92,1.84Zm36.11,12.65-4.14,1.38h-7.36l-.69-.69V-11.5l.46-.46h2.76l2.99,1.012v-8.694l-2.99,1.012h-2.76l-.46-.46v-2.76l.46-.46h7.13l3.772,1.242-2.622-7.912h-17.848l1.058,3.22V-3.22L-349.738,0H-331.2Zm26.772-8.28H-312.8l1.84,3.68v4.83l-1.15,1.15h-2.53l-1.84-.92-.92-1.84v-8.97l1.38-2.07,2.3-1.15h5.29l4.83,1.61-2.9-8.74H-319.93L-325.91-23V-5.52L-320.39,0h12.42l5.29-5.29-.46-2.3v-6.118ZM-287.5-39.1l-2.3-2.3-2.3,1.15-3.68,7.36,1.38.69Zm.138,39.1-1.058-3.22V-25.76l1.058-3.22h-10.4l1.058,3.22V-3.22L-297.758,0ZM-262.2-5.52v-7.912l-3.818-3.818-6.808-1.426-.874-.874v-.92l.6-1.2,1.242-.644h5.888l3.772,1.242-2.668-7.912H-276.69l-5.52,5.52v6.9l3.818,3.772,6.624,1.38,1.058,1.012V-8.74l-.6,1.2-1.242.644h-6.3l-4.278-1.38L-280.37,0h12.65Zm25.852-15.088L-239.2-28.98h-18.86l-2.852,8.372,4.37-1.472h3.312l.46.46V-3.68L-254.012,0h10.764l-1.242-3.68V-21.62l.46-.46h3.312ZM-208.38,0l-2.3-3.91-2.99-7.82,3.91-3.91v-7.82l-5.52-5.52h-18.538l1.058,3.22V-3.22L-233.818,0h10.166l-1.058-3.22V-9.2l.46-.46h2.3l.92.46,3.082,9.2Zm-9.66-18.63-.92,1.84-1.84.92h-3.45l-.46-.46v-5.52l.46-.46h3.45l1.84.92.92,1.84ZM-179.078,0l-1.61-3.22-6.072-23,.69-2.76h-14.72l.69,2.76-6.072,23L-207.828,0H-197.8l-.46-3.22.552-2.53.46-.46h7.13l.46.46.6,2.53L-189.52,0ZM-191.36-12.88l-.46.46h-3.818l-.46-.46,2.07-8.74.23-1.61.23,1.61Zm35.512-7.728L-158.7-28.98h-18.86l-2.852,8.372,4.37-1.472h3.312l.46.46V-3.68L-173.512,0h10.764l-1.242-3.68V-21.62l.46-.46h3.312ZM-132.02-8.28l-4.14,1.38h-7.36l-.69-.69V-11.5l.46-.46h2.76l2.99,1.012v-8.694l-2.99,1.012h-2.76l-.46-.46v-2.76l.46-.46h7.13l3.772,1.242-2.622-7.912h-17.848l1.058,3.22V-3.22L-153.318,0h18.538ZM-92.6,0l-1.61-3.22-6.072-23,.69-2.76h-14.72l.69,2.76-6.072,23L-121.348,0h10.028l-.46-3.22.552-2.53.46-.46h7.13l.46.46.6,2.53L-103.04,0ZM-104.88-12.88l-.46.46h-3.818l-.46-.46,2.07-8.74.23-1.61.23,1.61Zm50.968-16.1h-9.016l1.058,3.22v8.97l.23,1.84-.92-1.84-7.36-12.19h-9.108l1.288,3.22V-3.22L-78.8,0h9.246L-70.61-3.22V-15.18l-.23-1.84.92,1.84L-60.72,0h5.75V-25.76Zm30.13,0h-9.706l1.058,3.22V-9.43l-.874,1.7L-34.96-6.9h-1.61l-1.656-.828-.874-1.7V-25.76l1.058-3.22h-10.4l1.058,3.22V-7.59l-.46,2.07L-42.32,0H-29.9l5.52-5.52-.46-2.07V-25.76ZM2.99-8.28-1.15-6.9H-8.51l-.69-.69V-11.5l.46-.46h2.76l2.99,1.012v-8.694L-5.98-18.63H-8.74l-.46-.46v-2.76l.46-.46h7.13l3.772,1.242L-.46-28.98H-18.308l1.058,3.22V-3.22L-18.308,0H.23ZM25.53-5.52v-7.912L21.712-17.25,14.9-18.676l-.874-.874v-.92l.6-1.2,1.242-.644h5.888l3.772,1.242L22.862-28.98H11.04L5.52-23.46v6.9l3.818,3.772,6.624,1.38L17.02-10.4V-8.74l-.6,1.2L15.18-6.9h-6.3L4.6-8.28,7.36,0H20.01ZM51.382-20.608,48.53-28.98H29.67l-2.852,8.372,4.37-1.472H34.5l.46.46V-3.68L33.718,0H44.482L43.24-3.68V-21.62l.46-.46h3.312ZM79.35,0l-2.3-3.91-2.99-7.82,3.91-3.91v-7.82l-5.52-5.52H53.912l1.058,3.22V-3.22L53.912,0H64.078L63.02-3.22V-9.2l.46-.46h2.3l.92.46L69.782,0ZM69.69-18.63l-.92,1.84-1.84.92H63.48l-.46-.46v-5.52l.46-.46h3.45l1.84.92.92,1.84ZM107.64-5.52V-23.46l-5.52-5.52H88.78l-5.52,5.52V-5.52L88.78,0h13.34ZM99.13-9.43l-.828,1.7L96.6-6.9H94.3l-1.7-.828-.828-1.7V-19.78l.828-1.7,1.7-.828h2.3l1.7.828.828,1.7Zm50.508-19.55h-9.016l1.058,3.22v8.97l.23,1.84-.92-1.84-7.36-12.19h-9.108l1.288,3.22V-3.22L124.752,0H134L132.94-3.22V-15.18l-.23-1.84.92,1.84L142.83,0h5.75V-25.76ZM177.1-8.28,172.96-6.9H165.6l-.69-.69V-11.5l.46-.46h2.76l2.99,1.012v-8.694l-2.99,1.012h-2.76l-.46-.46v-2.76l.46-.46h7.13l3.772,1.242L173.65-28.98H155.8l1.058,3.22V-3.22L155.8,0H174.34Zm36.57-20.7h-9.062l.552,3.22-2.668,9.43-.23,1.61-.23-1.61L198.26-28.98h-5.98l-3.772,12.65-.23,1.61-.23-1.61-2.668-9.43.552-3.22H175.9l1.656,3.22L185.15,0h5.06l4.37-14.95.23-1.38.23,1.38L199.41,0h5.06l7.59-25.76ZM235.06-5.52v-7.912l-3.818-3.818-6.808-1.426-.874-.874v-.92l.6-1.2,1.242-.644h5.888l3.772,1.242-2.668-7.912H220.57l-5.52,5.52v6.9l3.818,3.772,6.624,1.38L226.55-10.4V-8.74l-.6,1.2L224.71-6.9h-6.3L214.13-8.28,216.89,0h12.65Zm25.07-2.76L255.99-6.9h-5.98l-.69-.69V-25.53l1.15-3.45H239.982l1.058,3.22V-3.22L239.982,0H257.37Zm23.23,0L279.22-6.9h-7.36l-.69-.69V-11.5l.46-.46h2.76l2.99,1.012v-8.694l-2.99,1.012h-2.76l-.46-.46v-2.76l.46-.46h7.13l3.772,1.242L279.91-28.98H262.062l1.058,3.22V-3.22L262.062,0H280.6Zm24.012-12.328L304.52-28.98H285.66l-2.852,8.372,4.37-1.472h3.312l.46.46V-3.68L289.708,0h10.764L299.23-3.68V-21.62l.46-.46H303Zm23.46,0L327.98-28.98H309.12l-2.852,8.372,4.37-1.472h3.312l.46.46V-3.68L313.168,0h10.764L322.69-3.68V-21.62l.46-.46h3.312ZM354.66-8.28,350.52-6.9h-7.36l-.69-.69V-11.5l.46-.46h2.76l2.99,1.012v-8.694l-2.99,1.012h-2.76l-.46-.46v-2.76l.46-.46h7.13l3.772,1.242L351.21-28.98H333.362l1.058,3.22V-3.22L333.362,0H351.9ZM383.18,0l-2.3-3.91-2.99-7.82,3.91-3.91v-7.82l-5.52-5.52H357.742l1.058,3.22V-3.22L357.742,0h10.166L366.85-3.22V-9.2l.46-.46h2.3l.92.46L373.612,0Zm-9.66-18.63-.92,1.84-1.84.92h-3.45l-.46-.46v-5.52l.46-.46h3.45l1.84.92.92,1.84Z" transform="translate(483.428 53.698)" fill="#fff"/>
  </g>
</svg>
