<svg xmlns="http://www.w3.org/2000/svg" xmlns:xlink="http://www.w3.org/1999/xlink" width="373.535" height="161.5" viewBox="0 0 373.535 161.5">
  <defs>
    <filter id="Trazado_125" x="0" y="0" width="373.535" height="161.5" filterUnits="userSpaceOnUse">
      <feOffset dy="13.333" input="SourceAlpha"/>
      <feGaussianBlur stdDeviation="13.333" result="blur"/>
      <feFlood flood-opacity="0.502"/>
      <feComposite operator="in" in2="blur"/>
      <feComposite in="SourceGraphic"/>
    </filter>
  </defs>
  <g transform="matrix(1, 0, 0, 1, 0, 0)" filter="url(#Trazado_125)">
    <path id="Trazado_125-2" data-name="Trazado 125" d="M-63.45-31.5H-74.025l.45,3.6L-77.4-13.95l-.225,1.8-.225-1.8L-81.675-27.9l.45-3.6H-92.25l1.8,3.6L-82.125,0h8.1l8.775-27.9ZM-48.375,0-49.5-3.6V-27.9l1.125-3.6H-59.4l1.125,3.6V-3.6L-59.4,0ZM-14.4-6.3V-25.2l-6.3-6.3H-40.275l1.125,3.6V-3.6L-40.275,0H-20.7Zm-9-4.5-1.125,2.25-2.25,1.125h-2.7L-30.15-8.1V-24.075l.45-.45h2.925l2.25,1.125,1.125,2.25ZM16.11-9.225,11.385-7.65H3.825L3.15-8.325V-12.6l.45-.45H6.525L9.9-11.925v-9.45L6.525-20.25H3.6l-.45-.45v-3.15l.36-.45h7.74l3.96,1.35L12.375-31.5h-18.9L-5.4-27.9V-3.6L-6.525,0H13.05ZM46.8-5.85v-19.8L40.95-31.5H27l-5.85,5.85v19.8L27,0H40.95Zm-9-4.275-.9,1.8-1.8.9H32.85l-1.8-.9-.9-1.8v-11.7l.9-1.8,1.8-.9H35.1l1.8.9.9,1.8ZM75.51-22.95,72.675-31.5h-12.6l-5.85,5.85v7.425l4.05,4.05L65.25-12.6l1.125,1.125v1.8L65.7-8.325l-1.35.675H57.915L53.19-9.225,56.25,0H69.525l5.85-5.85v-8.775L71.1-18.9l-6.975-1.575-.9-.9v-.9l.675-1.35,1.35-.675h6.39Zm-196,66.65V24.8l-6.3-6.3h-19.575l1.125,3.6V46.4l-1.125,3.6h19.575Zm-9-4.5-1.125,2.25-2.25,1.125h-2.7l-.675-.675V25.925l.45-.45h2.925l2.25,1.125,1.125,2.25Zm39.51,1.575L-94.7,42.35h-7.56l-.675-.675V37.4l.45-.45h2.925l3.375,1.125v-9.45l-3.375,1.125h-2.925l-.45-.45V26.15l.36-.45h7.74l3.96,1.35-2.835-8.55h-18.9l1.125,3.6V46.4l-1.125,3.6h19.575Zm26.1-13.725-2.835-8.55h-12.6l-5.85,5.85v7.425l4.05,4.05,6.975,1.575,1.125,1.125v1.8l-.675,1.35-1.35.675h-6.435L-86.2,40.775-83.138,50h13.275l5.85-5.85V35.375L-68.288,31.1l-6.975-1.575-.9-.9v-.9l.675-1.35,1.35-.675h6.39ZM-34,27.5l-3.015-9H-57.038l-3.015,9,4.68-1.575h3.51l.45.45v18.9L-52.988,50h11.925l-1.575-4.725v-18.9l.45-.45h3.51ZM-3.038,50l-1.8-3.6-6.3-24.975.675-2.925h-15.3l.675,2.925-6.3,24.975-1.8,3.6h10.35l-.45-3.6.675-2.7.45-.45h7.425l.45.45.675,2.7-.45,3.6ZM-16,36.05l-.45.45H-20.5l-.45-.45,2.25-9.675.225-1.575.225,1.575Zm38.97,4.725-5.4,1.8h-3.51l-2.7-1.35-1.125-2.25v-9.45l1.125-2.25,2.7-1.35h3.06l5.4,1.8L19.463,18.5H7.313l-6.3,6.3V43.7l6.3,6.3h12.6ZM55.012,50l-1.8-3.6-6.3-24.975.675-2.925h-15.3l.675,2.925L26.662,46.4l-1.8,3.6h10.35l-.45-3.6.675-2.7.45-.45h7.425l.45.45.675,2.7-.45,3.6ZM42.052,36.05l-.45.45h-4.05l-.45-.45,2.25-9.675.225-1.575.225,1.575Zm43.11,7.65V24.8l-6.3-6.3H59.288l1.125,3.6V46.4L59.288,50H78.863Zm-9-4.5-1.125,2.25-2.25,1.125h-2.7l-.675-.675V25.925l.45-.45h2.925l2.25,1.125,1.125,2.25Zm42.3,4.95V24.35l-5.85-5.85H98.663l-5.85,5.85v19.8L98.663,50h13.95Zm-9-4.275-.9,1.8-1.8.9h-2.25l-1.8-.9-.9-1.8v-11.7l.9-1.8,1.8-.9h2.25l1.8.9.9,1.8Zm37.71-12.825-2.835-8.55h-12.6l-5.85,5.85v7.425l4.05,4.05,6.975,1.575,1.125,1.125v1.8l-.675,1.35-1.35.675h-6.435l-4.725-1.575L127.913,50h13.275l5.85-5.85V35.375L142.763,31.1l-6.975-1.575-.9-.9v-.9l.675-1.35,1.35-.675h6.39Z" transform="translate(186.36 58.17)" fill="#fff453"/>
  </g>
</svg>
