<svg id="Titulo" xmlns="http://www.w3.org/2000/svg" xmlns:xlink="http://www.w3.org/1999/xlink" width="894.383" height="75" viewBox="0 0 894.383 75">
  <defs>
    <linearGradient id="linear-gradient" x1="0.765" y1="2.883" x2="0.235" y2="-1.615" gradientUnits="objectBoundingBox">
      <stop offset="0" stop-color="#e31b23"/>
      <stop offset="1" stop-color="#fe921b"/>
    </linearGradient>
  </defs>
  <path id="Trazado_44" data-name="Trazado 44" d="M616.842,3386.94a5.043,5.043,0,0,1-.122,1.306,2.768,2.768,0,0,1-.367.609c-.121.088-1.223.348-1.468.522-.489.087-18.352.871-18.963,1.045h-4.772c-.245-.174-4.893-.262-5.383-.349h-.979a3.808,3.808,0,0,1-.856.087c-.979,0-6.485.348-7.1.348-.489,0-7.218-.348-9.421-.609-1.468,0-13.7-.7-15.415-.869-.489,0-3.425-.087-4.526-.087-.979-.175-4.893-.261-5.873-.261,0-.087-.733-.609-.733-.783-.368-.087-3.3-.348-3.916-.435a3.387,3.387,0,0,1-.979-.261,3.222,3.222,0,0,0,0-1.131,2.6,2.6,0,0,0,.122-.87,17.926,17.926,0,0,0,2.2-2.785c.856-.608,4.649-3.131,5.262-3.393a13.687,13.687,0,0,1,2.814-.783,29.033,29.033,0,0,0,3.425-1.827,3.507,3.507,0,0,1,.979-.523,8.106,8.106,0,0,0,1.957-.087,5.033,5.033,0,0,0,1.836-1.392,8.707,8.707,0,0,0,2.2-.609c.244-.173,0-.609-.245-.7,1.223-.26,6.239-1.914,7.462-2.261,2.2-.61,9.176-3.22,9.788-3.568.612-.261,1.957-1.132,1.957-1.479a16.3,16.3,0,0,0,1.713-1.741,3.283,3.283,0,0,1-.367-1.044c0-1.392-2.936-4.872-3.3-5.308a22.063,22.063,0,0,0-3.67-2.784c-.856-.435-5.873-3.741-6.607-4l-7.952-6.091c-.612-.348-5.139-3.045-5.751-3.48a12.438,12.438,0,0,1-1.59-1.74c-.245-.347-2.936-2.436-2.569-2.784.489-.435,5.383-.869,5.872-1.044l13.581-1.479c.489,0,3.549-.087,3.916-.087.856,0,5.016.523,5.75.523l22.145-.523a2.1,2.1,0,0,1,.612,1.392c.245.087.734,1.915.856,2.175,0,0,.612.958.734,1.132a1.921,1.921,0,0,0,.245,1.218,15.591,15.591,0,0,1,.245,2.175v.87a6.54,6.54,0,0,1-.489,2l-1.1,32.889a15.766,15.766,0,0,1,.122,3.393S616.964,3386.506,616.842,3386.94Zm741.818-7.221a8.745,8.745,0,0,0,2.08-.609,3.98,3.98,0,0,0,1.223-.522s.122-6.526.122-7.309a16.05,16.05,0,0,0,.245-3.045c-.122-.609.122-5.395,0-6a18.185,18.185,0,0,0,.122-2.958c.122-.784.49-3.568.49-3.915l.856-15.314c.367-.7-.123-8.7.245-9.745v-.87a7.206,7.206,0,0,1,.245-1.218c0-1.045-.613-9.919-.613-10.093l-2.568-1.479a5.55,5.55,0,0,0-1.713-.523c-.246-.087-2.081-.26-2.081-.26s.123,0-8.808.086c-.246,0-.734.087-1.225.087H1345.2c-.367,0-8.2-.174-8.932-.174h-.489c-.367,0-.856.086-1.346.086-1.223.087-2.569.174-2.692.174,0,0-1.958-.087-2.568-.087H1326.6c-.245,0-3.549-.261-3.916-.261h-1.957c-.122,0-1.714-.087-1.714-.087-1.222,0-5.259-.087-6.484-.087-.856-.087-5.26-.087-5.75-.087-.734,0-7.219.087-9.788.174-.979,0-8.075.261-8.686.175h-2.937c-.855.086-10.277.174-11.744.174h-.734c-.98.087-6,.174-6.974.174l-14.193-.174h-9.056c-.368,0-8.2-.174-8.932-.174h-.49c-.366,0-.856.086-1.345.086-1.223.087-2.57.174-2.692.174,0,0-1.957-.087-2.569-.087h-2.569c-.245,0-3.549-.261-3.915-.261H1218.2c-.123,0-1.714-.087-1.714-.087-1.222,0-5.261-.087-6.484-.087-.857-.087-5.262-.087-5.751-.087-.733,0-7.218.087-9.787.174-.979,0-8.075.261-8.687.175h-2.936c-.856.086-10.277.174-11.745.174h-.735c-.978.087-5.994.174-6.972.174l-14.193-.174h-9.057c-.367,0-8.2-.174-8.932-.174h-.489c-.367,0-.856.086-1.346.086-1.224.087-2.569.174-2.692.174,0,0-1.958-.087-2.568-.087h-2.569c-.246,0-3.549-.261-3.916-.261h-1.958c-.122,0-1.714-.087-1.714-.087-1.222,0-5.259-.087-6.484-.087-.857-.087-5.262-.087-5.75-.087-.734,0-7.219.087-9.788.174-.979,0-8.075.261-8.686.175h-2.937c-.856.086-10.277.174-11.745.174h-.733c-.98.087-6,.174-6.974.174l-14.193-.174h-9.056c-.368,0-8.2-.174-8.932-.174h-.49c-.366,0-.856.086-1.345.086-1.224.087-2.57.174-2.693.174,0,0-1.957-.087-2.569-.087h-2.569c-.245,0-3.549-.261-3.915-.261h-1.957c-.122,0-1.714-.087-1.714-.087-1.223,0-5.26-.087-6.484-.087-.856-.087-5.262-.087-5.751-.087-.733,0-7.219.087-9.787.174-.979,0-8.076.261-8.687.175h-2.937c-.856.086-10.277.174-11.745.174H965.3c-.978.087-5.995.174-6.973.174l-14.193-.174h-9.056c-.368,0-8.2-.174-8.932-.174h-.49c-.366,0-.856.086-1.345.086-1.224.087-2.57.174-2.693.174,0,0-1.957-.087-2.569-.087H916.48c-.245,0-3.549-.261-3.915-.261h-1.957c-.122,0-1.714-.087-1.714-.087-1.223,0-5.26-.087-6.484-.087-.856-.087-5.262-.087-5.751-.087-.733,0-7.219.087-9.787.174-.979,0-8.075.261-8.687.175h-2.936c-.856.086-10.277.174-11.745.174h-.734c-.98.087-6,.174-6.974.174l-14.192-.174h-9.058c-.367,0-8.2-.174-8.932-.174h-.489c-.367,0-.856.086-1.346.086-1.223.087-2.57.174-2.692.174,0,0-1.957-.087-2.569-.087h-2.568c-.246,0-3.549-.261-3.916-.261h-1.957c-.122,0-1.714-.087-1.714-.087-1.222,0-5.259-.087-6.484-.087-.856-.087-5.262-.087-5.75-.087-.734,0-7.219.087-9.788.174-.979,0-8.075.261-8.686.175h-2.937c-.856.086-10.277.174-11.745.174h-.733c-.98.087-6,.174-6.974.174l-14.193-.174h-9.056c-.368,0-8.2-.174-8.932-.174h-.49c-.367,0-.856.086-1.346.086-1.223.087-2.569.174-2.691.174,0,0-1.957-.087-2.569-.087h-2.569c-.245,0-3.549-.261-3.916-.261h-1.957c-.121,0-1.713-.087-1.713-.087-1.223,0-5.26-.087-6.484-.087-.856-.087-5.262-.087-5.751-.087-.734,0-7.219.087-9.787.174-.98,0-8.075.261-8.687.175h-2.936c-.857.086-10.278.174-11.745.174h-.734c-.98.087-6,.174-6.974.174l-14.192-.174H626.263l-10.155-.174c-.122,0-1.59-.175-1.835-.175-.489,0-2.936.261-3.181.261-.489.087-2.08.261-2.08.261-1.223.261-1.835,1.828-1.835,1.914l-.489.261a4.715,4.715,0,0,0,.122.522c0,.087-.367,5.308-.367,5.656a39.637,39.637,0,0,0,1.346,4.7,10.283,10.283,0,0,0-.245,2c0,1.132.245,10.7.122,11.747,0,.173-.122,2.435-.122,2.7-.245,1.218,0,9.309-.245,10.441v.7c.245.522.489,4.524.734,4.785l-.245.7c.367.609.367,4.264.367,4.96,0,0-.122,1.218-.122,1.392.245,1.74.612,10.441.979,10.528a9.589,9.589,0,0,0,1.835.783c-.245.087.612.261.612.261,1.1.174,3.915.609,3.915.609l10.522-.087h7.587c24.837-.26,33.646-.522,36.093-.522h1.712c6.485,0,23.98.436,25.572.436,1.222-.087,11.378-.174,12.6-.174h3.549c.979,0,7.464-.175,8.075-.175.488.087,2.814.087,4.159.087h.856c.245,0,3.425.348,3.548.348h6.366c24.836-.26,33.646-.522,36.093-.522h1.714c6.484,0,23.979.436,25.57.436,1.222-.087,11.377-.174,12.6-.174h3.548c.979,0,7.464-.175,8.075-.175.489.087,2.814.087,4.16.087h.857c.244,0,3.425.348,3.548.348h6.366c24.838-.26,33.646-.522,36.092-.522h1.714c6.484,0,23.979.436,25.57.436,1.223-.087,11.378-.174,12.6-.174h3.548c.979,0,7.463-.175,8.075-.175.488.087,2.814.087,4.158.087h.857c.245,0,3.426.348,3.548.348h6.366c24.836-.26,33.646-.522,36.092-.522h1.714c6.484,0,23.979.436,25.569.436,1.225-.087,11.379-.174,12.6-.174h3.548c.979,0,7.463-.175,8.076-.175.488.087,2.814.087,4.159.087h.856c.245,0,3.425.348,3.548.348h6.366c24.836-.26,33.645-.522,36.092-.522h1.714c6.484,0,23.979.436,25.57.436,1.222-.087,11.377-.174,12.6-.174h3.547c.98,0,7.464-.175,8.075-.175.489.087,2.814.087,4.16.087h.857c.244,0,3.425.348,3.548.348h6.366c24.836-.26,33.646-.522,36.091-.522h1.714c6.484,0,23.98.436,25.569.436,1.224-.087,11.379-.174,12.6-.174h3.548c.979,0,7.463-.175,8.075-.175.488.087,2.814.087,4.159.087h.857c.245,0,3.425.348,3.548.348h6.366c24.836-.26,33.646-.522,36.093-.522h1.714c6.484,0,23.979.436,25.571.436,1.222-.087,11.378-.174,12.6-.174h3.548c.979,0,7.463-.175,8.074-.175.489.087,2.815.087,4.16.087h.857c.244,0,3.426.348,3.548.348h4.164a8.3,8.3,0,0,0,1.957-.522h4.649C1355.968,3380.241,1357.925,3379.806,1358.66,3379.719Zm71.45-40.806c0-.087-6.485.522-6.485.522-.611-.261-2.08-.783-2.08-.783l-27.039-.958c-2.08,0-10.889-1.218-12.724-1.218-.856,0-7.585.7-8.075.871a34.173,34.173,0,0,0-3.67-.262l1.224,6.614c0,.347.488,4.262.366,4.611l-1.345,14.53c0,1.392-.122,16.88-.368,18.446-.122,2.435-16.15,6.438-16.272,7.134,0,0,4.4,1.479,4.649,1.479.612.087,1.958.174,1.958.174l43.8-.174c.367,0,2.2-.26,3.058-.26,1.347-.175,4.16-.349,4.16-.349.245-.174,9.175-.087,9.665-.347a14.773,14.773,0,0,0,0-2.437c.123-.261-4.649-2.263-4.649-2.263,0-.26-3.058-1.218-3.427-1.565-.122-.349-1.467-1.828-1.711-2.263-.734-.783-2.692-3.045-2.815-3.045-.122-.175-3.426-2.262-4.649-3.306a19.138,19.138,0,0,1-2.936-1.393,19.665,19.665,0,0,0-2.936-2c-.245-.609-2.815-3.915-3.549-4.872a9.314,9.314,0,0,0-.612-1.305,6.27,6.27,0,0,1,1.958-1.828c1.346-.7,11.378-4.35,12.357-5.133.245,0,1.1-.7,1.1-.7,1.1-.7,5.751-3.568,6.118-4.089.245-.175,3.915-2,4.283-2.263.489-.174,1.958-1.392,2.446-1.653a14.641,14.641,0,0,1,2.081-2.349c0-.087,6.361-5.395,6.361-6.091C1430.354,3339.87,1430.11,3339.522,1430.11,3338.913Z" transform="translate(-535.971 -3315.508)" fill="url(#linear-gradient)"/>
  <path id="Trazado_126" data-name="Trazado 126" d="M-324.28-30.8h-9.46l1.1,3.52v9.46l.22,2.2-.88-2.2L-341-30.8h-9.46l1.32,3.52V-3.52L-350.24,0h9.68l-1.1-3.52V-16.28l-.22-2.2.88,2.2L-331.32,0h5.94V-27.28ZM-289.3-5.72V-25.08l-5.72-5.72h-13.64l-5.72,5.72V-5.72L-308.66,0h13.64Zm-8.8-4.18-.88,1.76-1.76.88h-2.2l-1.76-.88-.88-1.76V-21.34l.88-1.76,1.76-.88h2.2l1.76.88.88,1.76Zm42.9-20.9h-10.34l.44,3.52-3.74,13.64-.22,1.76-.22-1.76-3.74-13.64.44-3.52h-10.78l1.76,3.52L-273.46,0h7.92l8.58-27.28Zm28.292,21.78-4.62,1.54h-7.392l-.66-.66v-4.18l.44-.44h2.86l3.3,1.1V-20.9l-3.3,1.1h-2.86l-.44-.44v-3.08l.352-.44h7.568l3.872,1.32-2.772-8.36h-18.48l1.1,3.52V-3.52L-249.04,0h19.14Zm32.648,2.86V-24.64l-6.16-6.16h-19.14l1.1,3.52V-3.52L-219.56,0h19.14Zm-8.8-4.4-1.1,2.2-2.2,1.1H-209l-.66-.66V-23.54l.44-.44h2.86l2.2,1.1,1.1,2.2ZM-158.62,0l-1.76-3.52-6.16-24.42.66-2.86h-14.96l.66,2.86-6.16,24.42L-188.1,0h10.12l-.44-3.52.66-2.64.44-.44h7.26l.44.44.66,2.64L-169.4,0Zm-12.672-13.64-.44.44h-3.96l-.44-.44,2.2-9.46.22-1.54.22,1.54Zm44.352,7.48V-24.64l-6.16-6.16h-19.14l1.1,3.52V-3.52L-152.24,0h19.14Zm-8.8-4.4-1.1,2.2-2.2,1.1h-2.64l-.66-.66V-23.54l.44-.44h2.86l2.2,1.1,1.1,2.2Zm40.832,1.54-4.62,1.54h-7.392l-.66-.66v-4.18l.44-.44h2.86l3.3,1.1V-20.9l-3.3,1.1h-2.86l-.44-.44v-3.08l.352-.44h7.568l3.872,1.32L-98.56-30.8h-18.48l1.1,3.52V-3.52L-117.04,0H-97.9Zm27.72-13.42L-69.96-30.8H-82.28L-88-25.08v7.26l3.96,3.96,6.82,1.54,1.1,1.1v1.76l-.66,1.32-1.32.66h-6.292l-4.62-1.54L-86.02,0h12.98l5.72-5.72V-14.3l-4.18-4.18-6.82-1.54-.88-.88v-.88l.66-1.32,1.32-.66h6.248ZM-19.36-30.8h-9.68l-.44,3.08-3.3,6.6-.44,1.32-.44-1.32-3.3-6.6-.44-3.08H-48.18l2.42,3.52,7.92,15.84v6.82L-39.38,0h11.44l-1.54-4.62v-7.26l7.7-15.4ZM25.52-16.5v-8.58L19.8-30.8H.66l1.1,3.52V-3.52L.66,0H11.44L10.12-3.96V-9.9l.44-.44h8.8Zm-8.58-3.52-.88,1.76-1.76.88H10.56l-.44-.44v-5.5l.44-.44H14.3l1.76.88.88,1.76ZM59.62,0,57.2-4.18l-3.08-8.36,3.96-3.96v-8.58L52.36-30.8H33.22l1.1,3.52V-3.52L33.22,0H43.78l-1.1-3.52V-9.9l.44-.44h2.42l.88.44L49.72,0ZM49.5-20.02l-.88,1.76-1.76.88H43.12l-.44-.44v-5.5l.44-.44h3.74l1.76.88.88,1.76ZM92.84-5.72V-25.08L87.12-30.8H73.48l-5.72,5.72V-5.72L73.48,0H87.12ZM84.04-9.9l-.88,1.76-1.76.88H79.2l-1.76-.88L76.56-9.9V-21.34l.88-1.76,1.76-.88h2.2l1.76.88.88,1.76ZM135.52,0l-1.1-3.52V-27.28l1.1-3.52H124.3l-5.06,12.408-.22,1.012-.22-1.012L113.74-30.8h-11l1.1,3.52V-3.52L102.74,0h9.46l-1.1-3.52V-17.16l-.22-1.76.66,1.76L118.58,0h.22l7.04-17.16.66-1.76-.22,1.76V-3.52L125.18,0ZM170.5-5.72V-25.08l-5.72-5.72H151.14l-5.72,5.72V-5.72L151.14,0h13.64ZM161.7-9.9l-.88,1.76-1.76.88h-2.2l-1.76-.88-.88-1.76V-21.34l.88-1.76,1.76-.88h2.2l1.76.88.88,1.76Zm39.952.88-5.28,1.76H192.94L190.3-8.58l-1.1-2.2v-9.24l1.1-2.2,2.64-1.32h2.992l5.28,1.76L198.22-30.8H186.34l-6.16,6.16V-6.16L186.34,0h12.32ZM220.22,0l-1.1-3.52V-27.28l1.1-3.52H209.44l1.1,3.52V-3.52L209.44,0ZM255.2-5.72V-25.08l-5.72-5.72H235.84l-5.72,5.72V-5.72L235.84,0h13.64ZM246.4-9.9l-.88,1.76-1.76.88h-2.2l-1.76-.88-.88-1.76V-21.34l.88-1.76,1.76-.88h2.2l1.76.88.88,1.76Zm44.66-20.9H281.6l1.1,3.52v9.46l.22,2.2-.88-2.2-7.7-12.98h-9.46l1.32,3.52V-3.52L265.1,0h9.68l-1.1-3.52V-16.28l-.22-2.2.88,2.2L284.02,0h5.94V-27.28ZM323.312-9.02l-4.62,1.54H311.3l-.66-.66v-4.18l.44-.44h2.86l3.3,1.1V-20.9l-3.3,1.1h-2.86l-.44-.44v-3.08l.352-.44h7.568l3.872,1.32L319.66-30.8H301.18l1.1,3.52V-3.52L301.18,0h19.14Zm27.72-13.42L348.26-30.8H335.94l-5.72,5.72v7.26l3.96,3.96L341-12.32l1.1,1.1v1.76l-.66,1.32-1.32.66h-6.292l-4.62-1.54L332.2,0h12.98l5.72-5.72V-14.3l-4.18-4.18-6.82-1.54-.88-.88v-.88l.66-1.32,1.32-.66h6.248Z" transform="translate(441.939 50.093)" fill="#fff"/>
</svg>
