<svg id="Título" xmlns="http://www.w3.org/2000/svg" xmlns:xlink="http://www.w3.org/1999/xlink" width="637.5" height="75" viewBox="0 0 637.5 75">
  <defs>
    <linearGradient id="linear-gradient" x1="0.765" y1="2.883" x2="0.235" y2="-1.615" gradientUnits="objectBoundingBox">
      <stop offset="0" stop-color="#e31b23"/>
      <stop offset="1" stop-color="#fe921b"/>
    </linearGradient>
  </defs>
  <g id="Grupo_47" data-name="Grupo 47">
    <path id="Trazado_44" data-name="Trazado 44" d="M593.614,3386.94a7.02,7.02,0,0,1-.087,1.306,3.154,3.154,0,0,1-.262.609c-.086.088-.872.348-1.046.522-.349.087-13.081.871-13.517,1.045h-3.4c-.174-.174-3.488-.262-3.837-.349h-.7a1.97,1.97,0,0,1-.61.087c-.7,0-4.622.348-5.058.348-.349,0-5.145-.348-6.715-.609-1.046,0-9.767-.7-10.988-.869-.349,0-2.442-.087-3.226-.087a33.684,33.684,0,0,0-4.186-.262c0-.087-.522-.609-.522-.783-.262-.087-2.355-.348-2.791-.435a1.915,1.915,0,0,1-.7-.261,4.5,4.5,0,0,0,0-1.131,3.6,3.6,0,0,0,.087-.87,18.377,18.377,0,0,0,1.57-2.785c.61-.608,3.314-3.131,3.75-3.393a7.68,7.68,0,0,1,2.006-.783,19.768,19.768,0,0,0,2.442-1.827s.523-.523.7-.523a4.138,4.138,0,0,0,1.4-.087,4.025,4.025,0,0,0,1.309-1.392,4.9,4.9,0,0,0,1.57-.609c.174-.173,0-.609-.174-.7.872-.26,4.447-1.914,5.319-2.261a71.418,71.418,0,0,0,6.977-3.568c.436-.261,1.4-1.132,1.4-1.479a15.057,15.057,0,0,0,1.221-1.741,4.252,4.252,0,0,1-.262-1.044c0-1.392-2.093-4.872-2.354-5.308a17.767,17.767,0,0,0-2.616-2.784c-.61-.435-4.186-3.741-4.71-4l-5.668-6.091c-.436-.347-3.663-3.045-4.1-3.48a11.909,11.909,0,0,1-1.134-1.741c-.174-.347-2.093-2.435-1.831-2.784.349-.435,3.837-.869,4.186-1.044l9.68-1.479c.349,0,2.53-.087,2.791-.087.61,0,3.575.523,4.1.523l15.785-.523a2.515,2.515,0,0,1,.436,1.392,13,13,0,0,1,.61,2.175s.436.958.523,1.132a2.576,2.576,0,0,0,.174,1.218,21.666,21.666,0,0,1,.174,2.175v.87a8.777,8.777,0,0,1-.349,2l-.785,32.889a22.064,22.064,0,0,1,.087,3.393S593.7,3386.506,593.614,3386.94Zm528.754-7.221a5.015,5.015,0,0,0,1.482-.609,2.526,2.526,0,0,0,.872-.522s.087-6.526.087-7.309a22.4,22.4,0,0,0,.174-3.045c-.087-.609.087-5.395,0-6a25.474,25.474,0,0,0,.087-2.958c.087-.784.349-3.568.349-3.915l.61-15.314c.261-.7-.088-8.7.174-9.745v-.87a9.785,9.785,0,0,1,.175-1.218c0-1.045-.437-9.919-.437-10.094l-1.83-1.478c.087-.087-1.047-.523-1.221-.523a13.551,13.551,0,0,0-1.483-.26s.088,0-6.278.086c-.175,0-.523.087-.873.087h-1.485c-.262,0-5.843-.173-6.366-.173h-.349c-.262,0-.61.086-.959.086-.872.087-1.831.174-1.919.174,0,0-1.4-.087-1.83-.087h-1.831c-.174,0-2.53-.261-2.791-.261h-1.4c-.087,0-1.222-.087-1.222-.087-.871,0-3.749-.087-4.622-.087-.61-.087-3.75-.087-4.1-.087-.523,0-5.146.087-6.977.174-.7,0-5.756.261-6.191.175h-2.094c-.61.086-7.326.173-8.371.173h-.523c-.7.087-4.274.174-4.971.174l-10.117-.174h-6.455c-.262,0-5.843-.173-6.366-.173h-.349c-.261,0-.61.086-.958.086-.872.087-1.832.174-1.919.174,0,0-1.4-.087-1.831-.087h-1.831c-.174,0-2.53-.261-2.79-.261h-1.4c-.087,0-1.222-.087-1.222-.087-.871,0-3.75-.087-4.622-.087-.61-.087-3.75-.087-4.1-.087-.522,0-5.145.087-6.976.174-.7,0-5.756.261-6.192.175h-2.093c-.61.086-7.326.173-8.372.173h-.524c-.7.087-4.272.174-4.97.174l-10.117-.174H966.61c-.262,0-5.843-.173-6.366-.173h-.349c-.262,0-.61.086-.959.086-.872.087-1.831.174-1.919.174,0,0-1.4-.087-1.83-.087h-1.831c-.175,0-2.53-.261-2.791-.261h-1.4c-.087,0-1.221-.087-1.221-.087-.871,0-3.749-.087-4.621-.087-.61-.087-3.75-.087-4.1-.087-.523,0-5.145.087-6.977.174-.7,0-5.756.261-6.191.175h-2.094c-.61.086-7.325.173-8.372.173h-.523c-.7.087-4.273.174-4.971.174l-10.117-.174h-6.455c-.262,0-5.843-.173-6.366-.173h-.35c-.261,0-.61.086-.958.086-.873.087-1.832.174-1.919.174,0,0-1.4-.087-1.831-.087h-1.831c-.174,0-2.53-.261-2.79-.261h-1.4c-.087,0-1.222-.087-1.222-.087-.872,0-3.75-.087-4.622-.087-.61-.087-3.75-.087-4.1-.087-.522,0-5.146.087-6.976.174-.7,0-5.757.261-6.192.175h-2.094c-.61.086-7.325.173-8.372.173h-.523c-.7.087-4.273.174-4.97.174l-10.117-.174h-6.455c-.262,0-5.843-.173-6.366-.173h-.35c-.261,0-.61.086-.958.086-.873.087-1.832.174-1.919.174,0,0-1.4-.087-1.831-.087h-1.831c-.174,0-2.53-.261-2.79-.261h-1.4c-.087,0-1.221-.087-1.221-.087-.872,0-3.75-.087-4.622-.087-.61-.087-3.75-.087-4.1-.087-.522,0-5.145.087-6.976.174-.7,0-5.756.261-6.192.175H777.8c-.61.086-7.326.173-8.372.173h-.523c-.7.087-4.273.174-4.971.174l-10.116-.174h-6.457c-.262,0-5.843-.173-6.366-.173h-.349c-.262,0-.61.086-.959.086-.872.087-1.832.174-1.919.174,0,0-1.4-.087-1.831-.087h-1.83c-.175,0-2.53-.261-2.791-.261h-1.4c-.087,0-1.222-.087-1.222-.087-.871,0-3.749-.087-4.622-.087-.61-.087-3.75-.087-4.1-.087-.523,0-5.146.087-6.977.174-.7,0-5.756.261-6.191.175H704.72c-.61.086-7.325.173-8.372.173h-.522c-.7.087-4.274.174-4.971.174l-10.117-.174h-6.455c-.262,0-5.843-.173-6.366-.173h-.35c-.262,0-.61.086-.959.086-.872.087-1.831.174-1.918.174,0,0-1.4-.087-1.831-.087h-1.831c-.174,0-2.53-.261-2.791-.261h-1.4c-.086,0-1.221-.087-1.221-.087-.872,0-3.75-.087-4.622-.087-.61-.087-3.75-.087-4.1-.087-.523,0-5.145.087-6.976.174-.7,0-5.756.261-6.192.175h-2.093c-.611.086-7.326.173-8.372.173h-.523c-.7.087-4.273.174-4.971.174l-10.116-.174h-7.327l-7.238-.173c-.087,0-1.134-.175-1.308-.175-.349,0-2.093.261-2.267.261-.349.087-1.482.261-1.482.261-.872.261-1.308,1.828-1.308,1.914l-.349.261c0,.175.087.435.087.522s-.262,5.308-.262,5.656c.086,1.305.959,4.525.959,4.7a14.264,14.264,0,0,0-.174,2c0,1.132.174,10.7.087,11.747,0,.173-.087,2.435-.087,2.7-.174,1.218,0,9.309-.174,10.441v.7c.174.522.349,4.524.523,4.785l-.174.7a30.981,30.981,0,0,1,.262,4.96s-.087,1.218-.087,1.392c.174,1.74.436,10.441.7,10.528a6.06,6.06,0,0,0,1.308.783c-.174.087.436.261.436.261.785.174,2.79.609,2.79.609l7.5-.087h5.408c17.7-.26,23.982-.522,25.727-.522h1.22c4.622,0,17.093.436,18.227.436.871-.087,8.11-.174,8.982-.174h2.529c.7,0,5.32-.175,5.756-.175a27.268,27.268,0,0,0,2.965.087h.61c.174,0,2.442.348,2.529.348h4.537c17.7-.26,23.982-.522,25.726-.522h1.221c4.622,0,17.092.436,18.226.436.871-.087,8.11-.174,8.982-.174h2.529c.7,0,5.32-.175,5.756-.175a27.275,27.275,0,0,0,2.965.087h.611c.174,0,2.442.348,2.529.348h4.537c17.7-.26,23.982-.522,25.726-.522h1.222c4.622,0,17.092.436,18.226.436.872-.087,8.11-.174,8.982-.174h2.529c.7,0,5.319-.175,5.756-.175a27.26,27.26,0,0,0,2.964.087h.611c.174,0,2.442.348,2.529.348h4.537c17.7-.26,23.982-.522,25.726-.522h1.221c4.622,0,17.092.436,18.225.436.873-.087,8.111-.174,8.983-.174h2.529c.7,0,5.319-.175,5.756-.175a27.267,27.267,0,0,0,2.965.087h.61c.174,0,2.442.348,2.529.348H897.8c17.7-.26,23.982-.522,25.726-.522h1.222c4.621,0,17.092.436,18.226.436.871-.087,8.109-.174,8.982-.174h2.528c.7,0,5.32-.175,5.756-.175a27.274,27.274,0,0,0,2.965.087h.611c.174,0,2.442.348,2.529.348h4.537c17.7-.26,23.982-.522,25.725-.522h1.222c4.622,0,17.092.436,18.225.436.873-.087,8.111-.174,8.983-.174h2.529c.7,0,5.319-.175,5.756-.175a27.266,27.266,0,0,0,2.965.087h.61c.174,0,2.442.348,2.529.348h4.537c17.7-.26,23.982-.522,25.726-.522h1.222c4.622,0,17.092.436,18.226.436.871-.087,8.11-.174,8.982-.174h2.529c.7,0,5.319-.175,5.755-.175a27.284,27.284,0,0,0,2.965.087h.611c.174,0,2.442.348,2.529.348h2.968c.61,0,1.221-.522,1.4-.522h3.314C1120.449,3380.241,1121.844,3379.806,1122.368,3379.719Zm50.928-40.806c0-.087-4.622.522-4.622.522-.435-.261-1.482-.783-1.482-.783l-19.273-.958c-1.482,0-7.761-1.218-9.069-1.218a53.563,53.563,0,0,0-5.756.871,17.5,17.5,0,0,0-2.616-.262l.873,6.614c0,.347.348,4.262.261,4.611l-.958,14.53c0,1.392-.087,16.88-.262,18.446-.087,2.435-11.511,6.438-11.6,7.134,0,0,3.139,1.479,3.314,1.479.436.087,1.4.174,1.4.174l31.219-.174c.262,0,1.57-.26,2.18-.26.96-.175,2.965-.349,2.965-.349.174-.174,6.54-.087,6.889-.347a20.726,20.726,0,0,0,0-2.437c.087-.261-3.314-2.263-3.314-2.263,0-.26-2.18-1.218-2.442-1.565-.087-.349-1.046-1.828-1.22-2.263-.523-.783-1.918-3.045-2.006-3.045-.087-.175-2.442-2.262-3.314-3.306a12.4,12.4,0,0,1-2.093-1.393,14.955,14.955,0,0,0-2.093-2c-.174-.609-2.006-3.915-2.53-4.872a11.372,11.372,0,0,0-.436-1.3,5.626,5.626,0,0,1,1.4-1.828c.959-.7,8.11-4.35,8.808-5.133.175,0,.785-.7.785-.7a51.4,51.4,0,0,0,4.361-4.089c.174-.175,2.79-2,3.053-2.263.348-.174,1.4-1.392,1.743-1.653a14.165,14.165,0,0,1,1.483-2.349c0-.087,4.534-5.395,4.534-6.091C1173.471,3339.87,1173.3,3339.522,1173.3,3338.913Z" transform="translate(-535.971 -3315.508)" fill="url(#linear-gradient)"/>
    <path id="Trazado_131" data-name="Trazado 131" d="M-217.35-16.875V-25.65l-5.85-5.85h-19.575l1.125,3.6V-3.6L-242.775,0h11.025l-1.35-4.05v-6.075l.45-.45h9Zm-8.775-3.6-.9,1.8-1.8.9h-3.825l-.45-.45V-23.85l.45-.45h3.825l1.8.9.9,1.8Zm35.91,11.25L-194.85-7.65h-6.3l-.675-.675V-27.45l1.35-4.05h-11.25l1.125,3.6V-3.6L-211.725,0h18.45ZM-159.75,0l-1.8-3.6-6.3-24.975.675-2.925h-15.3l.675,2.925L-188.1-3.6-189.9,0h10.35L-180-3.6l.675-2.7.45-.45h7.425l.45.45.675,2.7-.45,3.6Zm-12.96-13.95-.45.45h-4.05l-.45-.45,2.25-9.675.225-1.575.225,1.575Zm40.86-17.55h-9.9l-.45,3.15-3.375,6.75-.45,1.35-.45-1.35-3.375-6.75-.45-3.15h-11.025l2.475,3.6,8.1,16.2v6.975L-152.325,0h11.7L-142.2-4.725V-12.15l7.875-15.75Zm23.985,22.275L-112.5-7.65h-6.3l-.675-.675V-27.45l1.35-4.05h-11.25l1.125,3.6V-3.6L-129.375,0h18.45ZM-92.7,0l-1.125-3.6V-27.9l1.125-3.6h-11.025l1.125,3.6V-3.6L-103.725,0Zm28.935-22.95L-66.6-31.5H-79.2l-5.85,5.85v7.425l4.05,4.05,6.975,1.575,1.125,1.125v1.8l-.675,1.35-1.35.675H-81.36l-4.725-1.575L-83.025,0H-69.75l5.85-5.85v-8.775L-68.175-18.9l-6.975-1.575-.9-.9v-.9l.675-1.35,1.35-.675h6.39Zm29.88.45-3.015-9H-56.925l-3.015,9,4.68-1.575h3.51l.45.45v18.9L-52.875,0H-40.95l-1.575-4.725v-18.9l.45-.45h3.51Zm25.47-.45L-11.25-31.5h-12.6l-5.85,5.85v7.425l4.05,4.05,6.975,1.575,1.125,1.125v1.8l-.675,1.35-1.35.675H-26.01l-4.725-1.575L-27.675,0H-14.4l5.85-5.85v-8.775L-12.825-18.9-19.8-20.475l-.9-.9v-.9l.675-1.35,1.35-.675h6.39ZM23.4,0,22.275-3.6V-27.9L23.4-31.5H12.375L13.5-27.9V-3.6L12.375,0ZM58.05-31.5H48.375L49.5-27.9v9.675l.225,2.25-.9-2.25L40.95-31.5H31.275l1.35,3.6V-3.6L31.5,0h9.9L40.275-3.6V-16.65L40.05-18.9l.9,2.25L50.85,0h6.075V-27.9Zm32.85,0H80.325l.45,3.6L76.95-13.95l-.225,1.8-.225-1.8L72.675-27.9l.45-3.6H62.1l1.8,3.6L72.225,0h8.1L89.1-27.9ZM121.275,0l-1.8-3.6-6.3-24.975.675-2.925H98.55l.675,2.925L92.925-3.6,91.125,0h10.35l-.45-3.6.675-2.7.45-.45h7.425l.45.45.675,2.7L110.25,0Zm-12.96-13.95-.45.45h-4.05l-.45-.45,2.25-9.675.225-1.575.225,1.575Zm38.07-9L143.55-31.5h-12.6l-5.85,5.85v7.425l4.05,4.05,6.975,1.575,1.125,1.125v1.8l-.675,1.35-1.35.675H128.79l-4.725-1.575L127.125,0H140.4l5.85-5.85v-8.775L141.975-18.9,135-20.475l-.9-.9v-.9l.675-1.35,1.35-.675h6.39ZM179.1-5.85v-19.8l-5.85-5.85H159.3l-5.85,5.85v19.8L159.3,0h13.95Zm-9-4.275-.9,1.8-1.8.9h-2.25l-1.8-.9-.9-1.8v-11.7l.9-1.8,1.8-.9h2.25l1.8.9.9,1.8ZM213.975,0,211.5-4.275l-3.15-8.55,4.05-4.05V-25.65l-5.85-5.85H186.975l1.125,3.6V-3.6L186.975,0h10.8L196.65-3.6v-6.525l.45-.45h2.475l.9.45L203.85,0Zm-10.35-20.475-.9,1.8-1.8.9H197.1l-.45-.45V-23.85l.45-.45h3.825l1.8.9.9,1.8ZM246.6,0l-1.8-3.6-6.3-24.975.675-2.925h-15.3l.675,2.925L218.25-3.6,216.45,0H226.8l-.45-3.6.675-2.7.45-.45H234.9l.45.45.675,2.7-.45,3.6ZM233.64-13.95l-.45.45h-4.05l-.45-.45,2.25-9.675.225-1.575.225,1.575Z" transform="translate(317.029 48.036)" fill="#fff"/>
  </g>
</svg>
