<svg xmlns="http://www.w3.org/2000/svg" width="291.51" height="81.5" viewBox="0 0 291.51 81.5">
  <path id="Trazado_126" data-name="Trazado 126" d="M-99.788-6.3V-25.65l-5.85-5.85h-13.95l-5.85,5.85v19.8l5.85,5.85h6.525l5.85,5.85,6.75-3.375-4.05-4.05Zm-9-3.825-.9,1.8-1.8.9h-2.25l-1.8-.9-.9-1.8v-11.7l.9-1.8,1.8-.9h2.25l1.8.9.9,1.8ZM-66.263-31.5h-10.35l1.125,3.6v17.775l-.9,1.8-1.8.9h-1.8l-1.8-.9-.9-1.8V-27.9l1.125-3.6H-92.588l1.125,3.6V-8.1l-.45,2.25L-86.063,0h13.275l5.85-5.85-.45-2.25V-27.9ZM-36.2-9.225-40.928-7.65h-7.56l-.675-.675V-12.6l.45-.45h2.925l3.375,1.125v-9.45l-3.375,1.125h-2.925l-.45-.45v-3.15l.36-.45h7.74l3.96,1.35-2.835-8.55h-18.9l1.125,3.6V-3.6L-58.838,0h19.575ZM-3.938,0-6.413-4.275l-3.15-8.55,4.05-4.05V-25.65l-5.85-5.85H-30.938l1.125,3.6V-3.6L-30.938,0h10.8l-1.125-3.6v-6.525l.45-.45h2.475l.9.45L-14.063,0Zm-10.35-20.475-.9,1.8-1.8.9h-3.825l-.45-.45V-23.85l.45-.45h3.825l1.8.9.9,1.8ZM25-9.225,20.272-7.65h-7.56l-.675-.675V-12.6l.45-.45h2.925l3.375,1.125v-9.45L15.412-20.25H12.487l-.45-.45v-3.15l.36-.45h7.74l3.96,1.35L21.262-31.5H2.362l1.125,3.6V-3.6L2.362,0H21.937ZM63.787,0,62.662-3.6V-27.9l1.125-3.6H52.312L47.137-18.81l-.225,1.035-.225-1.035L41.512-31.5H30.262l1.125,3.6V-3.6L30.262,0h9.675L38.812-3.6V-17.55l-.225-1.8.675,1.8L46.462,0h.225l7.2-17.55.675-1.8-.225,1.8V-3.6L53.212,0ZM97.313-5.85v-19.8l-5.85-5.85H77.512l-5.85,5.85v19.8L77.512,0h13.95Zm-9-4.275-.9,1.8-1.8.9h-2.25l-1.8-.9-.9-1.8v-11.7l.9-1.8,1.8-.9h2.25l1.8.9.9,1.8Zm37.71-12.825-2.835-8.55h-12.6l-5.85,5.85v7.425l4.05,4.05,6.975,1.575,1.125,1.125v1.8l-.675,1.35-1.35.675h-6.435L103.7-9.225,106.762,0h13.275l5.85-5.85v-8.775L121.612-18.9l-6.975-1.575-.9-.9v-.9l.675-1.35,1.35-.675h6.39ZM-121.7,40.775l-4.725,1.575h-7.56l-.675-.675V37.4l.45-.45h2.925l3.375,1.125v-9.45l-3.375,1.125h-2.925l-.45-.45V26.15l.36-.45h7.74l3.96,1.35-2.835-8.55h-18.9l1.125,3.6V46.4l-1.125,3.6h19.575ZM-95.6,27.05l-2.835-8.55h-12.6l-5.85,5.85v7.425l4.05,4.05,6.975,1.575,1.125,1.125v1.8l-.675,1.35-1.35.675H-113.2l-4.725-1.575,3.06,9.225h13.275l5.85-5.85V35.375l-4.275-4.275-6.975-1.575-.9-.9v-.9l.675-1.35,1.35-.675h6.39Zm29.025,13.725-5.4,1.8h-3.51l-2.7-1.35-1.125-2.25v-9.45l1.125-2.25,2.7-1.35h3.06l5.4,1.8-3.06-9.225h-12.15l-6.3,6.3V43.7l6.3,6.3h12.6ZM-35.212,18.5h-10.35l1.125,3.6V39.875l-.9,1.8-1.8.9h-1.8l-1.8-.9-.9-1.8V22.1l1.125-3.6H-61.537l1.125,3.6V41.9l-.45,2.25,5.85,5.85h13.275l5.85-5.85-.45-2.25V22.1Zm29.16,22.275-5.4,1.8h-3.51l-2.7-1.35-1.125-2.25v-9.45l1.125-2.25,2.7-1.35h3.06l5.4,1.8L-9.562,18.5h-12.15l-6.3,6.3V43.7l6.3,6.3h12.6ZM25.313,50l-1.125-3.6V22.1l1.125-3.6h-10.8l1.125,3.6v6.75l-.45.45h-5.4l-.45-.45V22.1l1.125-3.6H-.337L.788,22.1V46.4L-.337,50h10.8L9.338,46.4v-9l.45-.45h5.4l.45.45v9L14.513,50Zm34.425,0-1.8-3.6-6.3-24.975.675-2.925h-15.3l.675,2.925L31.388,46.4l-1.8,3.6h10.35l-.45-3.6.675-2.7.45-.45h7.425l.45.45.675,2.7-.45,3.6ZM46.778,36.05l-.45.45h-4.05l-.45-.45,2.25-9.675L44.3,24.8l.225,1.575ZM91.013,50l-2.475-4.275-3.15-8.55,4.05-4.05V24.35l-5.85-5.85H64.013l1.125,3.6V46.4L64.013,50h10.8l-1.125-3.6V39.875l.45-.45h2.475l.9.45L80.888,50ZM80.663,29.525l-.9,1.8-1.8.9H74.138l-.45-.45V26.15l.45-.45h3.825l1.8.9.9,1.8ZM119.9,27.5l-3.015-9H96.863l-3.015,9,4.68-1.575h3.51l.45.45v18.9L100.913,50h11.925l-1.575-4.725v-18.9l.45-.45h3.51Zm27.27,13.275-4.725,1.575h-7.56l-.675-.675V37.4l.45-.45h2.925l3.375,1.125v-9.45l-3.375,1.125h-2.925l-.45-.45V26.15l.36-.45h7.74l3.96,1.35-2.835-8.55h-18.9l1.125,3.6V46.4L124.538,50h19.575Z" transform="translate(144.337 31.5)" fill="#e31b23"/>
</svg>
