<!-- Generator: Adobe Illustrator 23.0.3, SVG Export Plug-In  -->
<svg version="1.1" xmlns="http://www.w3.org/2000/svg" xmlns:xlink="http://www.w3.org/1999/xlink" x="0px" y="0px" width="122.1px"
	 height="15.4px" viewBox="0 0 122.1 15.4" style="enable-background:new 0 0 122.1 15.4;" xml:space="preserve">
<style type="text/css">
	.st0{fill:#00A78A;}
	.st1{fill:#0C7762;}
	.st2{fill:#0FCEA9;}
	.st3{fill:#075B4B;}
	.st4{fill:#EFEFEF;}
	.st5{fill:#FFFFFF;}
</style>
<defs>
</defs>
<g>
	<path class="st0" d="M0.3,1.9c0.4-0.4,1-0.5,1.4-0.1c0.6,0.3,27.2,12.5,27.2,12.5H6.4c0,0-5.3-9.6-6.2-11C-0.1,2.8-0.1,2.3,0.3,1.9
		z"/>
	<path class="st1" d="M24.4,6c-1.4-1.3-4.3-4.1-5.8-5.6C18.4,0.1,18,0,17.6,0c-0.3,0-0.7,0.1-0.9,0.4C16.2,0.9,10.8,6,10.8,6
		l6.8,3.1L24.4,6z"/>
	<path class="st2" d="M35.1,1.9c-0.4-0.4-1-0.5-1.4-0.1C33.1,2.1,6.4,14.3,6.4,14.3h22.5c0,0,5.3-9.6,6.2-11
		C35.4,2.8,35.4,2.3,35.1,1.9z"/>
	<polygon class="st3" points="24.4,6 6.4,14.2 22.8,4.4 	"/>
	<path class="st4" d="M81.9,10.5"/>
	<path class="st5" d="M47.6,15.4c-1.1,0-2.2-0.3-3.1-0.9c-0.9-0.6-1.7-1.5-2.2-2.5c-0.6-1.2-0.8-2.4-0.8-3.7c0-1.2,0.3-2.5,0.8-3.6
		c0.5-1.1,1.3-1.9,2.2-2.6c1-0.7,2.1-1,3.2-1c0.8,0,1.5,0.2,2.2,0.5c0.7,0.3,1.2,0.8,1.6,1.5l0.1-1.6H56V15h-4.4l0-1.5
		c-0.4,0.6-1,1.1-1.6,1.4C49.2,15.3,48.4,15.4,47.6,15.4z M48.9,11.3c0.7,0,1.5-0.3,1.9-0.8c0.5-0.6,0.8-1.3,0.8-2.1
		c0-0.8-0.2-1.5-0.8-2.1c-0.5-0.5-1.2-0.9-1.9-0.8c-0.7,0-1.5,0.3-2,0.8c-0.5,0.6-0.8,1.4-0.8,2.1c0,0.8,0.2,1.5,0.8,2.1
		C47.4,11,48.1,11.3,48.9,11.3z"/>
	<path class="st5" d="M58.5,1.6h4.5l0.1,1.7C63.5,2.6,64,2,64.6,1.7c0.7-0.4,1.5-0.6,2.4-0.5c0.8,0,1.6,0.2,2.3,0.6
		c0.7,0.4,1.2,1,1.6,1.7c0.4-0.7,1-1.3,1.7-1.6c0.8-0.4,1.7-0.6,2.5-0.6c1.6,0,2.7,0.5,3.6,1.4s1.2,2.4,1.2,4.2V15h-4.7V7.7
		c0.1-0.6-0.1-1.3-0.4-1.8c-0.3-0.4-0.8-0.6-1.3-0.6c-0.5,0-1.1,0.2-1.4,0.7c-0.4,0.6-0.5,1.2-0.5,1.9V15h-4.7V7.7
		c0.1-0.6-0.1-1.3-0.4-1.8c-0.3-0.4-0.8-0.6-1.3-0.6c-0.6,0-1.1,0.2-1.4,0.7c-0.4,0.6-0.6,1.2-0.5,1.9V15h-4.7V1.6z"/>
	<path class="st5" d="M88.7,15.4c-2.1,0-3.7-0.5-4.8-1.6s-1.7-2.6-1.7-4.7V1.6h4.7V9c0,0.6,0.1,1.2,0.4,1.7c0.3,0.4,0.9,0.6,1.4,0.6
		c0.5,0,1-0.2,1.3-0.5c0.3-0.5,0.5-1.1,0.4-1.7V1.6h4.7v7.5c0,2.1-0.6,3.7-1.7,4.7C92.4,14.9,90.8,15.4,88.7,15.4z"/>
	<path class="st5" d="M97.6,1.6h4.5l0,2c0.3-0.7,0.8-1.3,1.4-1.7c0.6-0.4,1.3-0.6,2-0.6c0.5,0,1,0.1,1.5,0.3L106.7,6
		c-0.5-0.2-1.1-0.3-1.7-0.3c-0.8-0.1-1.5,0.3-2,0.9c-0.5,0.6-0.7,1.5-0.7,2.7V15h-4.7V1.6z"/>
	<path class="st5" d="M113.7,15.4c-1.1,0-2.2-0.3-3.1-0.9c-0.9-0.6-1.7-1.5-2.2-2.5c-0.6-1.2-0.8-2.4-0.8-3.7c0-1.2,0.3-2.5,0.8-3.6
		c0.5-1.1,1.3-1.9,2.2-2.6c1-0.7,2.1-1,3.3-1c0.8,0,1.5,0.2,2.2,0.5c0.7,0.3,1.2,0.8,1.6,1.5l0-1.6h4.4V15h-4.4l-0.1-1.5
		c-0.4,0.6-1,1.1-1.6,1.4C115.3,15.3,114.5,15.4,113.7,15.4z M114.9,11.3c0.7,0,1.5-0.3,2-0.8c0.5-0.6,0.8-1.3,0.8-2.1
		c0-0.8-0.2-1.5-0.8-2.1c-0.5-0.5-1.2-0.9-2-0.8c-0.7,0-1.5,0.3-2,0.8c-0.5,0.6-0.8,1.4-0.8,2.1c0,0.8,0.2,1.5,0.8,2.1
		C113.5,11,114.2,11.3,114.9,11.3z"/>
</g>
</svg>
